<?xml version="1.0" encoding="UTF-8"?>
<svg id="Layer_1" data-name="Layer 1" xmlns="http://www.w3.org/2000/svg" width="510.2" height="254.57" viewBox="0 0 510.2 254.57">
  <defs>
    <style>
      .cls-1 {
        fill: #f1a540;
      }

      .cls-2 {
        fill: #f5a643;
      }

      .cls-3 {
        fill: #153a62;
      }
    </style>
  </defs>
  <g>
    <path class="cls-2" d="M433.23,205.21c7.26-4.06,12.19-11.82,12.19-20.71,0-13.07-10.63-23.71-23.71-23.71s-23.71,10.63-23.71,23.71c0,8.89,4.93,16.66,12.19,20.71-16.14,4.94-27.91,19.97-27.91,37.71,0,2.21,1.79,4,4,4s4-1.79,4-4c0-17.33,14.1-31.43,31.43-31.43s31.43,14.1,31.43,31.43c0,2.21,1.79,4,4,4s4-1.79,4-4c0-17.74-11.77-32.77-27.91-37.71ZM421.72,168.79c8.66,0,15.71,7.05,15.71,15.71s-7.05,15.71-15.71,15.71-15.71-7.05-15.71-15.71,7.05-15.71,15.71-15.71Z"/>
    <path class="cls-2" d="M281.18,205.21c7.26-4.06,12.19-11.82,12.19-20.71,0-13.07-10.63-23.71-23.71-23.71s-23.71,10.63-23.71,23.71c0,8.89,4.93,16.66,12.19,20.71-16.14,4.94-27.91,19.97-27.91,37.71,0,2.21,1.79,4,4,4s4-1.79,4-4c0-17.33,14.1-31.43,31.43-31.43s31.43,14.1,31.43,31.43c0,2.21,1.79,4,4,4s4-1.79,4-4c0-17.74-11.77-32.77-27.91-37.71ZM269.66,168.79c8.66,0,15.71,7.05,15.71,15.71s-7.05,15.71-15.71,15.71-15.71-7.05-15.71-15.71,7.05-15.71,15.71-15.71Z"/>
    <path class="cls-2" d="M350.06,43.76c7.26-4.06,12.19-11.82,12.19-20.71,0-13.07-10.63-23.71-23.71-23.71s-23.71,10.63-23.71,23.71c0,8.89,4.93,16.66,12.19,20.71-16.14,4.94-27.91,19.97-27.91,37.71,0,2.21,1.79,4,4,4s4-1.79,4-4c0-17.33,14.1-31.43,31.43-31.43s31.43,14.1,31.43,31.43c0,2.21,1.79,4,4,4s4-1.79,4-4c0-17.74-11.77-32.77-27.91-37.71ZM338.54,7.34c8.66,0,15.71,7.05,15.71,15.71s-7.05,15.71-15.71,15.71-15.71-7.05-15.71-15.71,7.05-15.71,15.71-15.71Z"/>
    <path class="cls-3" d="M269.66,152.87c-2.21,0-4-1.79-4-4v-18.53c0-2.21,1.79-4,4-4h64.88v-26.89c0-2.21,1.79-4,4-4s4,1.79,4,4v26.89h79.17c2.21,0,4,1.79,4,4v17.72c0,2.21-1.79,4-4,4s-4-1.79-4-4v-13.72h-75.17v11.31c0,2.21-1.79,4-4,4s-4-1.79-4-4v-11.31h-60.88v14.53c0,2.21-1.79,4-4,4Z"/>
    <path class="cls-3" d="M268.43,24.84h-63.19c-2.21,0-4-1.79-4-4s1.79-4,4-4h63.19c2.21,0,4,1.79,4,4s-1.79,4-4,4Z"/>
    <path class="cls-3" d="M503.33,142.48v63.19c0,2.21-1.79,4-4,4s-4-1.79-4-4v-63.19c0-2.21,1.79-4,4-4s4,1.79,4,4Z"/>
    <path class="cls-3" d="M440.41,18.5h-42.01c-1.47,0-2.66-1.19-2.66-2.66s1.19-2.66,2.66-2.66h42.01c1.47,0,2.66,1.19,2.66,2.66s-1.19,2.66-2.66,2.66Z"/>
  </g>
  <g>
    <path class="cls-1" d="M127.79,123.56c0-1.07-.5-1.6-1.58-1.58-.48,0-.99-.04-1.41.27.07-.23-.1-.25-.24-.24-.14.01-.31.06-.19.27-.53-.24-1.04-.22-1.51.14-.07-.15-.14-.15-.21,0-.96-.47-1.9-.37-2.84.06-.47-.39-.72-.38-1,.03-.71-.27-1.41-.36-2.07.15-.98-.45-2.08-.41-3.1-.67-.03,0-.08.11-.12.16.06.03.13.07.19.1.13.07.25.13.38.19.13.06.26.12.39.17-.13-.05-.26-.11-.39-.17-.13-.06-.26-.12-.38-.19-.06-.03-.13-.07-.19-.1-.11-.45-.39-.72-.83-.84.42-.69.29-1.28-.32-1.78.19-.39.1-.74-.15-1.07.57-.89.02-1.58-.48-2.2-.44-.55-.76-1.11-.88-1.8-.43-2.43-1.79-4.41-3.15-6.37-.83-1.19-.59-2.39.65-3.04,1.47-.78,2.64-1.97,3.87-3.06,1.12-.99,2.04-2.19,3.28-3.06,1.08-.76,1.27-2.73.28-3.44-.76-.55-1.18-1.22-1.42-2.08-.11-.4-.34-.74-.63-1.06-1.19-1.3-2.27-2.72-3.57-3.89-1.13-1.02-2.24-2.08-3.5-2.99-1.43-1.05-3.17-1.53-4.49-2.75-.61-.57-2-.27-2.68.32-1.01.88-2.02,1.76-3.03,2.63-.98.85-1.66,2.03-2.85,2.65-.12.06-.14.26-.02.4-1.06,1.32-2.45,1.34-3.94,1.04-.31-.79-1.02-1.2-1.7-1.5-.8-.35-1.61-.98-2.59-.54-1.37-1.13-2.81-2.08-4.72-1.8-.96-.92-2.12-1.5-3.4-1.74-.69-.13-1.44-.52-2.15-.02-.08-.08-.16-.17-.25-.26-.27-1.19-.24-2.4-.23-3.62.02-2.25.03-4.49,0-6.74,0-.36.21-.87-.4-1.02.69-.77.4-1.54,0-2.31.35.2.36-.07.34-.28-.02-.22-.14-.34-.34-.11-.02-.83-.56-.93-1.22-.87.05-.05.13-.09.14-.14,0-.05-.06-.15-.11-.15-1.7-.3-3.4-.65-5.1-.91-2.25-.34-4.54-.82-6.83-.27-1.35.33-2.67.8-4.07.88-.22.01-.58-.04-.53.39-.41-.2-.81-.16-1.18.09-.56-.37-1.11-.41-1.63.08-1.58-.22-2.15.21-2.08,1.57-.02-.03-.03-.07-.06-.1-.02-.02-.07-.03-.09-.01-.3.21-.22.54-.24.82-.16,2.73-.01,5.47-.16,8.21-.05.89-.26,2,.57,2.8-.22.35-.19.69,0,1.04-1.35.7-2.54,1.63-3.68,2.64-.25-.1-.48-.07-.69.1-.19-.29-.34-.23-.46.06-.42-.21-.81-.21-1.15.17-.17-.28-.3-.24-.39.06-1.12-.15-1.61.59-2.03,1.43-.21-.19-.32-.15-.33.14-.26-.24-.55-.1-.84-.07-1.63.13-2.51,1.54-3.82,2.22-.27-.26-.4-.18-.43.17-.51-.16-.8.04-.9.55-.64-.05-1.08.1-.91.88-.14.07-.29.13-.44.2-.29-.29-.59-.33-.91-.04-.14-.16-.3-.19-.48-.09-.19-.48-.51-.48-.89-.23-.17-.64-.5-1.16-1.1-1.49.03-.08.11-.19.08-.25-.06-.15-.19-.17-.33-.08,0,0,0-.09,0-.09h-.09c.1-.78-.21-1.21-1.02-1.2-.02-.45-.2-.76-.68-.83.21-.32.11-.45-.26-.39,0-.51-.29-.74-.77-.76.12-.62-.06-.83-.76-.89.11-.54-.21-.86-.63-1.08-1.14-.6-2.78-.38-3.82.5-.34.29-.64.67-1.08.79-1.9.52-3.26,1.83-4.56,3.17-1.2,1.23-2.25,2.59-3.33,3.93-1.55,1.93-3,3.86-3.8,6.22-.02.07-.06.14-.1.2q-.85,1.36.42,2.61c-.2,0-.26.12-.18.27.06.12.19.23.31.02.06.37.29.53.64.54.5.86,1.23,1.49,2.07,2,1.07.73,1.66,2.1,3.11,2.33-.3.67.35.89.66,1.15,1.19,1,1.17,2.15.64,3.44-.09.22-.52.41-.13.72-.45.1-.75.36-.9.76-.03-.01-.07-.01-.12.02-.26.18-.52.38-.09.66-.17.29-.22.61-.15.94-.71.81-1.28,1.74-1.62,2.72-.27.77-.72,1.68-.08,2.54-.44.63-.38,1.33-.34,2.04-1.05.41-2.09.91-3.26.83-2.84-.19-5.68-.39-8.53-.58-2.46-.16-3.43.65-3.45,3.1-.05,5.07-.03,10.13-.01,15.2,0,.31-.22.79.36.91-.3.96-.48,1.92.12,2.85-.26.89.4,1.11,1,1.33,1.57.56,3.07-.13,4.6-.3.04,0,.05-.19.08-.28.59.3,1.16.31,1.7-.1.8.45,1.59.51,2.34-.11.61.28,1.2.29,1.76-.11.48.54,1.11.3,1.67.31.97.01,1.58.45,1.76,1.38.33,1.74,1.61,3.12,1.82,4.89,0,.05.17.09.26.14-.08.31,0,.57.21.81-.29,1.46.99,2.1,1.62,3.08-.06.3.01.57.21.81-.33.47-.25.72.26.8-.02.88.54,1.28,1.27,1.55-.35.42-.19.61.29.65-.17.63-.22,1.24.23,1.79-.16-.05-.27,0-.29.17-.03.19.01.34.23.39-.13.21-.26.43-.38.65-.34-.33-.55.02-.7.2-.54.71-1.59,1.04-1.65,2.13-1,.29-1.49,1.16-2.09,1.9-.06-.2-.2-.16-.31-.08-.09.06-.11.16,0,.24-.46.11-.69.43-.78.88-.01-.04-.02-.08-.04-.1-.02-.02-.07-.05-.09-.04-1.48.74-2.26,2.26-3.56,3.21-.29.21-.16.63-.16.96-.01,1.64,1.35,2.52,2.26,3.47,1.56,1.63,2.95,3.44,4.74,4.89,1.61,1.31,2.95,2.94,4.98,3.69.27.1.49.34.71.55,2.48,2.32,4.53.55,5.84-1.62.17-.07.23-.2.17-.38.54-.27,1.05-.57,1.3-1.17.17-.01.26-.11.26-.28.86-.73,1.74-1.44,2.42-2.36.37-.51.8-.84,1.46-.93,1.66-.24,3.12.03,4.34,1.3.4.42.9.85,1.57.41.2.17.41.22.66.11.78.58,1.58,1.14,2.36,1.71.43.32,1.1.61,1.73.18.28.24.58.3.92.12,1.2.63,2.2,1.62,3.53,2.04,1.08.34,1.67,1,1.65,2.23-.03,1.58-.44,3.11-.4,4.7.05,1.71.25,3.46-.36,5.14-.14.4-.03.47.37.56-.35,2.02,1.15,3.16,3.31,2.51,1.86.72,3.74,1.41,5.75,1.5,2.13.09,4.27.05,6.41.03.67,0,1.38-.03,2-.25,1.18-.43,2.35-.65,3.6-.73.69-.04,1.56-.12,1.89-1.02.23-.03.37-.17.41-.4.29-.47.3-.47.21-1.12-.47-3.35-.5-6.73-.37-10.09.09-2.35.59-2.75,2.4-3.06.17-.03.51.03.35-.36.43.1.83.04,1.2-.21-.01.01-.03.02-.04.04-.02.02-.01.09-.01.09.66.11,1.01-.15.9-.67,1.26-.5,2.65-.7,3.81-1.47.79.27,1.05.1,1.03-.65.25-.15.5-.3.75-.44.01.06.03.11.04.17.03-.02.06-.03.09-.05-.04-.05-.07-.09-.11-.14.51.05.96-.09,1.34-.43l.03.14s.05-.03.08-.04c-.03-.04-.07-.07-.1-.11.41,0,.75-.14.96-.51.57.58.75-.15,1.03-.35,1.1-.8,3.33-1.11,3.87-.3.58.86,1.35,1.48,2.02,2.23,1.36,1.53,2.69,3.08,4.05,4.61.4.45.93.54,1.53.56,2.15.08,3.49-1.54,5.17-2.44,0,0-.05-.11-.08-.17.27-.07.45-.24.53-.52.64-.08,1.01-.47,1.17-1.07.49.13.83-.19.99-.53.3-.61.83-1.02,1.18-1.58.39.13.49-.08.48-.42.3-.07.38-.25.29-.53.7-.2,1.39-.54,1.74-1.12.76-1.25,1.97-2.09,2.78-3.31.75-1.14.82-1.34-.55-1.98-.11-.75-.22-1.51-1.25-1.51-.08-.45-.29-.78-.8-.79,0-.34-.12-.6-.46-.73-1.07-1.27-2.02-2.67-3.58-3.43,0-.39-.21-.59-.6-.6,0-.07.05-.17.01-.2-1.39-1.62-1.36-2.88.12-4.45.32-.34.56-.69.68-1.14.63-2.38,2.33-4.33,2.77-6.79.05-.31.37-.56.52-.86.56-1.15.99-2.32.51-3.62.15-.16.17-.34.06-.53.47-1.34,1.52-1.91,2.84-2.11.18-.03.35-.14.26-.38,1.61.4,3.22.38,4.83,0,.6.54,1.2.53,1.76,0,.44.21.87.2,1.32.01-.2.16-.06.26.08.28.15.02.31-.03.17-.24,2.16.86,4.15-.19,4.12-2.85-.06-6.01,0-12.02,0-18.04ZM85.42,153.88c-.7-.19-1.46.52-1.4,1.33.47-.44.93-.89,1.4-1.33,0,0,0,0,0,0-.47.44-.93.89-1.4,1.33-2.37,1.38-4.68,2.87-6.94,4.44-.53.37-1.12.62-1.76.75-.93.2-1.8.49-2.61,1.02-1.03.67-2.25.58-3.4.65-3.23.18-6.47.23-9.7.03-1.22-.07-2.39-.27-3.4-1.04-.15-.11-.33-.23-.5-.25-2.41-.27-4.31-1.75-6.45-2.65-1.1-.46-1.9-1.37-2.74-2.09-.99-.86-2.14-1.6-2.94-2.73-.48-.69-1.24-1.18-1.87-1.76-.49-.57-1.26-.92-1.63-1.59.38.68,1.14,1.02,1.63,1.59-.05-1.18-1.28-1.36-1.82-2.12-.05-.46-.24-.82-.66-1.04.25-.54.06-.75-.72-.79.24.26.48.53.72.79,0,0,0,0,0,0-.24-.26-.48-.53-.71-.79-.17-1.18-.13-2.43-1.26-3.24-.1-.13-.21-.27-.31-.4,0-.59-.21-1.08-.63-1.49.19-.07.29-.21.24-.4-.05-.2-.2-.14-.33-.07.03.16.06.31.09.47,0,0,0,0,0,0-.03-.16-.06-.31-.09-.47.24-.84,0-1.61-.38-2.35.34.05.29-.2.27-.39-.02-.17-.08-.35-.32-.19.01.19.03.38.04.58h0c-.01-.19-.03-.38-.04-.58.14-.46.07-.88-.23-1.26.04.01.07.03.11.03.03,0,.08-.04.07-.05-.27-.84-.39-1.75-1.11-2.39.1.65.36,1.24.64,1.82-.28-.58-.54-1.17-.64-1.82.26-1.18.35-2.36-.01-3.54.16.09.32.06.34-.11.13-1.67.84-3.21,1.11-4.85.04-.24.13-.53-.22-.65.32-.4.37-.84.17-1.3.19.12.25,0,.24-.16,0-.12-.1-.17-.22-.1,0,.08-.02.17-.03.26h0c0-.09.02-.17.03-.26.24-.32.3-.67.16-1.05.52-.13.51-.35.11-.64-.04.21-.07.42-.11.64,0,0,0,0,0,0,.04-.21.07-.42.11-.63.24-.24.37-.54.39-.88.27.4.43.07.58-.11.13-.16.17-.35-.15-.36-.14.15-.29.31-.43.46,0,0,0,0,0,0,.14-.15.29-.31.43-.46.14-.19.28-.39.42-.58.1-.32.2-.63.3-.95.19-.22.25-.46.18-.74.09.09.17.06.2-.04.03-.1-.03-.17-.15-.14,0,.06-.02.13-.05.19,0,0,0,0,0,0,.03-.06.05-.12.05-.19.25-.25.4-.56.47-.91.03.05.07.09.1.13.02-.03.05-.05.07-.08-.05-.02-.1-.05-.15-.07,0,0-.02,0-.02.01h0s.02-.01.02-.01c.73-.35,1.47-.69,1.3-1.72.06,0,.17.03.17.02.03-.11-.02-.14-.12-.11,0,0-.05.08-.05.08h0s.05-.08.05-.08c.14-.22.28-.44.42-.67.03.05.06.09.09.13.03-.04.06-.08.1-.12-.05-.02-.1-.04-.15-.06.9-.45,1.61-1.06,1.73-2.14.05.11.14.14.19.04.06-.1,0-.17-.13-.15.07-.02.17-.02.21-.06,1.53-1.5,3.21-2.86,4.61-4.49.02.06.03.11.05.17.03-.02.06-.04.09-.06-.04-.04-.08-.08-.12-.12,1.25-.19,2.28-.7,2.8-1.93.03.13.12.18.23.12.11-.05.14-.15.06-.26-.1.04-.19.09-.29.14,0,0,0,0,0,0,.1-.04.19-.09.29-.13.47.09.87-.03,1.19-.41.03.3.24.22.38.14.15-.08.34-.2.08-.38-.15.08-.3.16-.46.24h0c.15-.08.31-.16.46-.24.22-.16.43-.33.65-.49.44-.46,1-.65,1.58-.81-.58.16-1.14.35-1.58.81,0,.04-.01.08,0,.11,0,.03.04.08.05.08.65-.26,1.38-.39,1.78-1.07.34.12.64.07.91-.18.2.49.57.17.85.14,1.18-.11,2.19-.88,3.31-1.03,3.61-.47,7.24-.9,10.75.63.46.2,1.03.78,1.59.08.28.25.59.29.93.13.14.49.35.49.62.08-.21-.03-.41-.06-.62-.08h0c.21.03.41.06.62.08.26.22.56.27.87.13.33.56.76.84,1.4.46-.33-.2-.68-.34-1.05-.41.37.07.72.21,1.05.41.14.55.47.89,1.05.94-.04.04-.08.08-.12.11.03.02.06.04.08.05.02-.05.04-.1.06-.15.3.38.68.53,1.15.43.25.54.59.86,1.21.52h0c.13.29.34.47.64.55l1.59.83c.22.42.53.72,1.02.79-.06.71,1.53,2.49,2.31,2.56,0-.04,0-.07,0-.11-.49-1.08-1.78-1.41-2.31-2.45,0,0,0,0,0,0,.53,1.04,1.83,1.36,2.31,2.45,1.07.89,1.62,2.33,3.04,2.83-.19,0-.27.12-.2.28.6,1.41,1.83,2.35,2.67,3.59-.08.25-.02.47.15.66-.16-.09-.22,0-.17.13.05.11.17.14.21-.04,0,0,0-.01-.01-.03v.03c.09.27.26.44.53.52-.1.55.03.85.67.64-.17-.27-.35-.52-.66-.64h0c.31.12.5.37.66.64-.05.39.07.71.36.97-.13,0-.19.08-.17.2.03.12.11.17.23.12-.02-.1-.04-.21-.07-.31,0,0,0,0,0,0,.02.1.04.21.07.31-.08.24-.03.45.15.62-.2,0-.27.13-.24.28.33,1.47,1.17,2.7,1.87,3.99-.29.77-.29,1.53.16,2.25-.36.42-.46.81.09,1.16-.03-.39-.06-.77-.09-1.16,0,0,0,0,0,0,.03.39.06.78.09,1.16-.28,1.77-.21,3.54,0,5.3-.58.54-.46,1.12-.08,1.7.03-.57.05-1.13.08-1.7h0c-.03.57-.05,1.14-.08,1.7-.42.66-.44,1.34-.15,2.05-.02.15-.04.3-.06.45-.3.27-.34.59-.15.94h0c-.57.24-.81.61-.42,1.19-.06.09-.13.17-.19.26-.09.13-.18.26-.27.39-.22.11-.29.28-.24.52-.39-.09-.54.12-.62.46-.58,2.36-1.96,4.28-3.35,6.22-.38.53-1.18,1.09-.6,1.98-.86.68-1.94,1.16-2.28,2.35ZM35.46,128.02c-.42,1.26-.89,2.5-.83,3.87,0,0,0,0,0,0-.06-1.37.41-2.61.83-3.87ZM40.36,115.85h0s.02-.03.02-.03c0,.01-.02.02-.02.03ZM42.13,113.67h0s.04-.03.05-.05c-.01.02-.03.04-.05.05ZM55.15,104.72s0,0,0,0c.57-.12,1.12-.26,1.67-.45-.54.19-1.1.33-1.67.45ZM57.33,104.08c.14-.06.28-.12.42-.19-.14.07-.28.13-.42.19ZM77.7,106.74c.36.15.72.31,1.07.46-.36-.15-.72-.31-1.07-.46h0ZM76.52,106.3h.01s-.01,0-.01,0h0ZM89.87,117.86c-.42-1.28-1.76-1.97-2.34-3.15,0,0,0,0,0,0,.58,1.18,1.93,1.87,2.34,3.15ZM91.96,122.4h0c.08.33.17.66.31.97-.13-.31-.23-.63-.31-.97ZM92.38,123.62s0,0,0,.01c0,0,0,0,0-.01ZM91.97,144.13c-.28.84-.7,1.62-1.14,2.39.45-.77.86-1.55,1.14-2.39ZM90.59,146.94c-.11.19-.23.39-.34.58.11-.19.23-.39.34-.58ZM92.09,143.72c-.02.09-.05.17-.08.25.03-.08.05-.17.08-.25ZM17.65,113.13s.02,0,.03,0c-.01.03-.02.07-.03.11,0-.03,0-.1,0-.1Z"/>
    <path class="cls-1" d="M81.15,108.64c-.53-.28-1.06-.56-1.6-.83.08.72.62,1.01,1.6.83Z"/>
    <path class="cls-1" d="M37.88,120.17c-.1.32-.2.63-.3.95.61-.15.81-.44.3-.95Z"/>
    <path class="cls-1" d="M37.3,143.91c-.13-.14-.29-.23-.35.07.1.13.21.27.31.4.32-.14.18-.32.04-.48Z"/>
    <path class="cls-1" d="M93.31,139.33c-.02.15.05.26.23.26.02-.15.04-.3.06-.45-.17-.05-.28.04-.3.19Z"/>
    <path class="cls-1" d="M92.44,141.93c-.14.16-.12.31.07.43.09-.13.18-.26.27-.39-.1-.13-.22-.18-.34-.04Z"/>
  </g>
</svg>