<?xml version="1.0" encoding="UTF-8"?>
<svg id="Layer_1" data-name="Layer 1" xmlns="http://www.w3.org/2000/svg" width="528.35" height="696.09" viewBox="0 0 528.35 696.09">
  <defs>
    <style>
      .cls-1 {
        fill: #83402d;
      }

      .cls-2 {
        fill: #10253f;
      }

      .cls-3 {
        fill: #3b7e7a;
      }

      .cls-4 {
        fill: #0a1523;
      }

      .cls-5 {
        fill: #1f4b7a;
      }

      .cls-6 {
        fill: #ed732e;
      }

      .cls-7 {
        fill: #c9dae7;
      }

      .cls-8 {
        fill: #f5f7f7;
      }
    </style>
  </defs>
  <path class="cls-7" d="M43.2,397.3c8.09,8.3,8.17,8.4,18.37.98,9.67-7.05,19.8-13.66,26.21-24.26,2.07,1.93,4.79,3.55,3.43,7.12-5.05,10.02-12.34,18.09-21.4,24.62-.91.71-1.83,1.41-2.74,2.12l.09-.09c-1.87.06-3.04,1.21-4.07,2.59-.97.29-2.12.26-2.59,1.45-1.89.87-3.78,1.75-5.67,2.62,0,0,.17-.15.17-.15-.96.32-1.91.63-2.87.95,0,0-.22-.06-.22-.06-6.83-2.52-9.35-7.7-8.71-17.89Z"/>
  <path class="cls-4" d="M25.11,337.22c-3.62-1.48-5.38-5.09-8.35-7.32-2.16-1.61-4.41-2.92-7.28-2.25,2.36-2.29,4.21-4.78,4.67-8.26.24-1.79.71-4.04,3.34-4.25,0,0,.3.38.3.38-3.55,5.05-2.4,9.36,1.81,13.46,2.32,2.26,5.25,4.1,6.18,7.54-.23.22-.45.46-.66.71Z"/>
  <path class="cls-4" d="M7.88,329.98c.11,3.56.22,7.12.34,10.67-3.92-3.44-4.48-6.98-.34-10.67Z"/>
  <path class="cls-4" d="M17.53,364.91c1.77,1.89,2.39,4.29,3.03,6.69-2.7-1.46-4.83-3.18-3.03-6.69Z"/>
  <path class="cls-4" d="M13.54,355.42c1.8,1.9,2.38,4.31,2.82,6.77-4.4-.81-2.43-4.28-2.82-6.77Z"/>
  <path class="cls-4" d="M8.17,340.63c1.93,1.87,2.26,4.37,2.65,6.84-3.08-1.43-2.8-4.16-2.65-6.84Z"/>
  <path class="cls-4" d="M10.92,348.24c1.57,2.16,2.42,4.6,2.68,7.25-3.44-1.48-2.8-4.46-2.68-7.25Z"/>
  <g>
    <path class="cls-4" d="M183.06,475.34c.41-15.02-1.04-29.87-3.65-44.67-1.08-6.12-1.1-12.46-1.51-18.68-2.1-31.77-1.71-63.6-1.39-95.42.07-6.75.95-13.64,2.99-20.58,2.91,2.71,2.2,5.77,2.21,8.59.05,17.95-.48,35.91.14,53.84.9,25.89,1.96,51.82,4.28,77.61,1.17,13.08,1.72,26.26,3.64,39.28-2.24,0-4.47,0-6.71.01Z"/>
    <path class="cls-2" d="M183.09,562.59c0-1.56,0-3.12,0-4.68,0-2.84.33-5.66,4.04-5.64,3.78.02,5.46,2.12,5.43,6.01-.03,3.81-.49,7.49-1.24,11.22-.5,2.51-1.06,4.27-4.05,4.04-2.7-.2-4.03-1.67-4.12-4.28-.08-2.22-.02-4.45-.02-6.68-.01,0-.03,0-.04,0Z"/>
    <path class="cls-4" d="M433.51,433.61c-2.25,0-4.49,0-6.74,0-3.47-20.19-9.76-39.77-11.06-60.47-1.13-18.06.3-35.71,4.59-53.03,4.95-20.02,14.63-37.94,28.34-53.44,2.25-2.54,6.74-6.79,9.23-4.12,2.66,2.85-3.16,4.79-5.2,6.91-8.82,9.19-15.23,19.84-20,31.47-8.89,21.64-13.1,44.27-11.1,67.59,1.29,15.09,5.12,29.87,8.31,44.7,1.45,6.72,3.74,13.37,3.63,20.39Z"/>
    <path class="cls-4" d="M405.2,624.53c-.78.3-1.24-.04-1.52-.75.28-.25.56-.49.84-.74.23.5.45.99.68,1.49Z"/>
    <path class="cls-4" d="M442.8,651c-.72-.64-1.44-1.27-2.16-1.91.72.64,1.44,1.27,2.16,1.91Z"/>
    <g>
      <path class="cls-4" d="M375.57,215.55c3.67-2.68,4.86.93,6.78,2.67-.68,9.87,1.09,19.64,1.24,29.46.27,16.84.15,17-15.4,22.8-3.49,1.3-3.21,2.31-1.18,4.46,3.38,3.57,6.8,7.07,9.93,10.9,2.53,3.09,2.31,5.63.75,8.49-13.16,24.13-25.42,48.77-40.48,71.85-13.17,20.18-24.68,41.37-38.36,61.27-9.99,14.53-18.54,30.08-30.79,42.95-7.21,7.58-10.41,16.14-9.71,26.61.69,10.47.3,20.96,1.21,31.49,1.75,20.26,4.06,40.38,8.37,60.25,4.13,19.02,8.07,38.14,17.73,55.36,6.62,11.81,15.25,21.89,29.04,25.15,20.54,4.85,38.21-2.28,54.47-14.43,6.19-4.63,11.52-10.44,18.64-13.82-.89,3.43,1.67,5.48,3.4,7.64,5.04,6.29,10.19,12.51,15.62,18.46,5.07,5.54,8.83,12.31,14.89,16.96,2.01-1.82,1.75-4.11,2.68-5.8,3.67-6.59,2.41-15.76,10.43-20.07,4.34-.13,5.51-4.22,8.13-6.51,5.91,2.02,6.8,6.79,6.67,12.13,1,3.42,1.42,6.88,1.39,10.48-.1,11.72-.99,12.86-12.66,14.92q-10.27,1.81-10.27,12.29h-253.1c-1.32-3.94-1.55-8-1.35-12.11,14.32,3.3,28.89,3.12,43.4,2.46,7.56-.35,13.01-4.39,17.09-11.26,8.67-14.6,11.34-31.04,14.56-47.09,3.4-17,5.94-34.23,7.54-51.6,1.47-15.95.42-31.63-1.05-47.45-1.64-17.64-1.19-35.36-.11-53.03.21-3.45.48-6.48-1.03-9.69-10.89-23.18-16.61-48-23.01-72.61-5.62-21.62-9.07-43.69-12.62-65.7-2.3-14.28-2.92-28.83-4.4-43.25-.56-5.44,2.06-8.33,6.95-9.94,3.17-1.04,6.33-2.25,9.29-3.79,2.9-1.51,5.21-3.44.26-5.64-5.03-2.24-5.16-5.27-2.28-9.91,7.36-11.82,17.32-21.64,24.92-33.25,1.93-.05,3.71.15,3.95,2.64-7.17,8.52-14.57,16.86-21.44,25.6-6.42,8.16-5.91,9.53,3.28,14.4,1.32.7,3.27.71,3.01,2.93-.21,1.82-1.7,2.52-3.11,3.22-5.02,2.49-9.91,5.3-15.12,7.33-3.37,1.31-4.22,3.25-4.39,6.53-.33,6.32,1.21,12.46,1.36,18.69.34,14.33,3.26,28.34,5.62,42.36,2.84,16.85,6.65,33.57,10.77,50.16,4.94,19.89,9.79,39.84,17.43,58.98,1.65,4.13,6.91,4.45,8.1,8.73,3.26-1.06,3.79-4.78,6.37-6.53.69-.47,1.1-1.39,1.59-2.14,14.82-22.45,29.88-44.74,44.4-67.38,20.98-32.71,39.17-67.03,57.7-101.16,1.49-2.74.75-3.78-1.39-5.38-3.92-2.94-7.58-6.24-11.32-9.42-3.78-3.22-4.48-6.26.84-8.49,4.11-1.73,8.25-3.49,12.53-4.69,3.66-1.02,5.08-2.9,5.02-6.67-.17-10.31-.18-20.62,0-30.93.07-3.96-.72-7.54-2.79-10.87Z"/>
      <path class="cls-2" d="M449.64,663.83c.13-5.34-.76-10.11-6.67-12.13-.32-.17-.38-.4-.17-.7-.72-.64-1.44-1.28-2.16-1.91-11.69-8.37-22.34-18.23-35.44-24.55-.23-.5-.45-.99-.68-1.49-.28.25-.56.49-.84.74-1.26-.07-2.52-.14-3.78-.2-.02-.5-.04-1-.06-1.5.16-1.1.03-2.36.53-3.28,9.71-17.92,16.09-37.25,23.6-56.08,8.32-20.88,17.4-41.52,23.1-63.38,1.12-4.28,4.39-6.52,9-6.5,6.95.03,13.91.12,20.86-.08,2.11-.06,5.79,1.43,5.75-2.41-.03-3.34-3.45-2.84-5.83-2.86-6.84-.07-13.67-.02-20.77-.02.71-3.33,2.66-4.5,4.61-5.47,4.6-2.28,9.2-4.58,13.96-6.47,2.3-.92,5.85-1.4,4.89-4.14-.99-2.83-4.95-1.89-7.13-.93-5.91,2.6-11.53,5.85-17.26,8.86-1.83.96-3.3,2.29-4.04,4.31-.52,1.41-.72,3.44-2.87,2.96-1.67-.37-1.06-2.2-1.38-3.42-4.44-16.52-8.9-33.04-13.35-49.56.11-7.02-2.18-13.67-3.63-20.39-3.19-14.84-7.02-29.62-8.31-44.7-2-23.32,2.22-45.94,11.1-67.59,4.78-11.63,11.19-22.28,20-31.47,2.04-2.13,7.86-4.06,5.2-6.91-2.49-2.67-6.99,1.58-9.23,4.12-13.71,15.49-23.39,33.42-28.34,53.44-4.28,17.32-5.72,34.97-4.59,53.03,1.3,20.7,7.59,40.29,11.06,60.47-.72,4.62-1.44,9.24-2.16,13.86-3,19.17-6.8,38.28-5.88,57.83.71,14.97,1.47,29.92,1.42,44.91-.02,6.01-2.38,11.34-3.45,17.01-.58,3.06-3.53,4.87-7.15,5.07-19.62,1.09-39.18,3.29-58.89,2.72-8.62-.25-12.17-3.32-12.72-11.89-.19-2.9.09-5.83-.08-8.74-.26-4.36,2.05-6.06,6.01-6.31,7.35-.45,14.69-.97,22.04-1.37,9.28-.51,18.58-.71,27.83-1.5,3.7-.32,7.85-.51,10.92-3.87-2.58-2.18-5.2-1.55-7.45-1.29-18.63,2.18-37.35,2.88-56.05,4.05-4.06.25-7.91,2.77-8.3,6.57-.63,6.09-1.65,12.5,1.4,18.48,2.05,4.02,3.75,8.35,8.76,9.5,6.12,1.41,12.33,2.18,18.64,1.63,14.2-1.24,28.39-2.63,42.61-3.7,4.1-.31,7.29.86,5.25,6.29-2.84,7.54-5.04,15.28-8.03,22.79-2.04,5.12-5.1,10.41-3.02,16.44.02.96.04,1.92.06,2.88,0,.41-.08.8-.25,1.18-1.08.8-1.16,1.94-1.05,3.14-.47.74-.95,1.48-1.42,2.22-.46.53-.91,1.07-1.36,1.6-.31.39-.61.78-.92,1.17-1.87-.04-2.97.78-3.04,2.73l.02-.08c-1.09.57-1.41,1.55-1.45,2.68l.02-.03c-.45.48-.9.95-1.34,1.43h.08c-7.12,3.38-12.45,9.19-18.64,13.82-16.25,12.15-33.93,19.28-54.47,14.43-13.79-3.26-22.42-13.34-29.04-25.15-9.66-17.22-13.6-36.34-17.73-55.36-4.31-19.87-6.62-39.99-8.37-60.25-.91-10.53-.51-21.02-1.21-31.49-.69-10.47,2.51-19.03,9.71-26.61,12.24-12.87,20.8-28.42,30.79-42.95,13.68-19.9,25.19-41.1,38.36-61.27,15.06-23.08,27.31-47.72,40.48-71.85,1.56-2.86,1.78-5.39-.75-8.49-3.13-3.83-6.56-7.33-9.93-10.9-2.03-2.15-2.31-3.16,1.18-4.46,15.55-5.8,15.66-5.96,15.4-22.8-.16-9.82-1.92-19.59-1.24-29.46,11.18,9.27,26,10.9,38.21,18.18,5.01,2.99,11.11,4.3,16.69,6.43,13.45,5.14,25.92,12,37.93,19.8,4.24,2.75,7.19,6.32,8.41,11.6,1.18,5.13,4.97,9.24,6.77,14.35,7.32,20.7,10.44,42.27,14.92,63.61,3.15,14.99,3.31,30.49,8.21,45.12.98,2.93,1.36,6.09,1.78,9.18,3.86,28.58,7.86,57.23,5.51,86.1-1.57,19.38-7.83,37.8-14.37,56.14-6.74,18.88-15.99,36.6-23.84,54.95-6.87,16.07-13.82,32.31-24.01,46.8-3.07,4.37-2.64,11.08-8.92,13.33ZM371.91,366.33c-5.1.39-11.4-.87-17.51.68-1.83.47-5.42-.32-5.11,2.88.28,2.93,3.49,3.21,5.9,3.04,11.08-.8,22.16-1.59,33.29-1.33,1.8.04,3.91-.28,3.87-2.65-.03-2.35-2.13-2.57-3.94-2.59-5.13-.06-10.25-.02-16.5-.02ZM263.86,500.64c-.49,4.15,2.16,6.59,6.06,6.7,4.39.13,5.96-3.6,5.87-7.28-.1-3.67-1.81-7.13-6.23-7.08-4.53.05-5.83,3.27-5.7,7.65Z"/>
      <path class="cls-2" d="M253.17,227.66c-7.6,11.6-17.56,21.43-24.92,33.25-2.88,4.63-2.76,7.67,2.28,9.91,4.96,2.2,2.64,4.13-.26,5.64-2.96,1.54-6.12,2.75-9.29,3.79-4.89,1.61-7.5,4.5-6.95,9.94,1.48,14.42,2.1,28.97,4.4,43.25,3.54,22.01,7,44.07,12.62,65.7,6.4,24.61,12.12,49.43,23.01,72.61,1.51,3.21,1.24,6.24,1.03,9.69-1.08,17.66-1.53,35.39.11,53.03,1.47,15.82,2.52,31.5,1.05,47.45-1.6,17.37-4.13,34.6-7.54,51.6-3.22,16.06-5.89,32.49-14.56,47.09-4.08,6.87-9.53,10.91-17.09,11.26-14.52.67-29.08.85-43.4-2.46-7.57-6.61-5.46-14.73-4.11-23.09,3.02-18.66,4.98-37.49,8.34-56.08,1.85-10.25,4.98-20.23,3.98-30.84-.17-1.8,1.05-2.96,2.91-2.95,2.13.01,4.86-1.04,5.99,1.62,2.59,6.1,4.14,2,5.03-.62,2.56-7.54,2.99-15.25.98-23.08-.58-2.27-1.6-3.59-3.76-4.1-6.11-1.45-6.66-6.02-5.82-10.97,3.6-21.22,2.87-42.59,2.57-63.96-1.92-13.02-2.47-26.2-3.64-39.28-2.31-25.79-3.37-51.72-4.28-77.61-.62-17.93-.09-35.89-.14-53.84,0-2.82.7-5.88-2.21-8.59-2.04,6.94-2.92,13.83-2.99,20.58-.32,31.81-.71,63.65,1.39,95.42.41,6.22.43,12.56,1.51,18.68,2.61,14.8,4.06,29.65,3.65,44.67-4.31,7.26-7.75,15.25-13.13,21.6-7,8.26-11.05,19.65-22.51,23.6-7.05,2.43-13.83,2.8-21.3-.19-16.78-6.71-25.6-21.34-35.87-34.41-15.56-19.79-30.41-40.14-45.61-60.22-2.62-3.46-4.14-6.21,2.09-7.17,1.98-.31,4.68-.39,5.18-3.36l.22.06c1.3.74,2.3.54,2.87-.95l-.17.15c2.39.21,5.14,1.21,5.67-2.62.47-1.18,1.62-1.16,2.59-1.45,3.74,2.89,3.58-.37,4.07-2.59l-.09.09c1.47.02,2.46-.59,2.74-2.12,9.06-6.53,16.35-14.6,21.4-24.62,1.76-.5,2.71-2.45,5.22.43,12.74,14.63,26.06,28.78,39.28,42.99,5.78,6.21,11.83,12.18,17.73,18.27,1.59,1.64,3.71,3.86,5.6,2.04,2.36-2.26-.22-4.3-1.93-6.05-9.06-9.24-18.02-18.57-27.22-27.67-1.84-1.82-1.11-2.83-.22-4.53,7.31-13.86,9.78-29.38,15-43.95,7.51-20.95,12.22-42.75,20.34-63.55,5.99-15.33,14.56-28.7,25.49-40.65,5.41-5.92,13.39-8.47,20.35-12.07,11.86-6.15,23.08-13.72,36.03-17.69,2.05-.63,3.93-2.29,6.29-1.07ZM250.42,562.49c-.42-4.17-2.49-7.24-6.84-7.5-4.55-.27-6.16,3.36-6.26,7.02-.14,4.55,3.26,6.79,7.32,6.94,3.87.14,6.06-2.28,5.78-6.47Z"/>
      <path class="cls-1" d="M376.82,126.73c-2.7,9.2-8.44,16.1-16.15,21.59-4.55,3.24-9.16,5.62-15.39,2.95,8.49,10.59,5.42,22.79,6.17,34.36.19,2.87-.6,5.85.98,8.56-.25,1.26-.5,2.52-.75,3.78l-.28.32c-.43.43-.86.86-1.29,1.29-17.98,12.96-35.03,27.22-54.15,38.53-3.29,1.95-1.85,3.69-1.36,5.84-2-.07-2.3-2.25-3.74-3.02-3.5-5.37-6.99-10.73-10.49-16.1-.03-.46-.06-.92-.09-1.38,2.27-1.39,4.47-2.92,6.82-4.16,14.26-7.52,26.64-17.31,36.44-30.19,1.65-2.17,3.81-4.34,3-8.16-5.27,2.59-10.04,5.02-14.88,7.3-15.59,7.37-31.45,13.29-49.14,8.39h0c-1.48-1.52-3.33-2.32-5.35-2.82-.5-.4-1.01-.81-1.51-1.21-.41-.36-.83-.72-1.24-1.07,0,0-.28-.19-.27-.19-.49-.96-1.27-1.49-2.35-1.55,0,0,.05.07.05.07-.45-.6-.89-1.19-1.34-1.79-.52-.73-1.03-1.46-1.55-2.2-.4-.47-.81-.94-1.21-1.41,0,0,.02.02.02.02-.44-.56-.87-1.12-1.31-1.68-11.8-21.72-8.39-45.06-7.23-68.14.45-8.9,1.24-17.79,1.87-26.68,5.51-.85,10.98-1.08,16.45.5,1.54.44,3.81,1.31,4.48-1.14.55-2.02-1.2-3.22-2.83-3.99-3.23-1.51-6.64-2.73-10.25-2.36-5.25.52-6.1-1.96-4.8-6.29.32-1.05.46-2.15.69-3.23.19-.36.27-.75.25-1.16,1.23-1.17,1.34-2.63,1.14-4.19.12-.41.18-.82.18-1.25,1.83-1.9,2.68-4.19,2.74-6.8v-.04c1.09-.57,1.31-1.6,1.36-2.71l-.02.04c3.27-5.41,6.73-9.28,14.12-5.66,4.81,2.36,10.61,2,15.9,1.08,7.36-1.27,14.72-1.26,22.1-1.07,19.84.51,29.86,11.31,26.91,30.84-2.23,14.76,3.67,27.15,8.33,40.12.77,2.14,2.39,3.24,4.6,3.28,2.26.04,2.83-1.8,3.53-3.47,1.86-4.46,4.77-8.13,8.8-10.77,9.09-5.94,18.39-2.15,21.15,8.39.75,2.87,1.11,5.68.89,8.61ZM262.24,102.2c-.94,3.1-1.65,6.29-2.88,9.26-1.36,3.29-3.14,6.42-4.82,9.58-2.41,4.54-5.05,8.96-7.29,13.57-1.18,2.43-1.71,5.2.92,7.31,4.06,3.25,16.99,2.52,21.22-1.42-2.02-.13-3.77-.12-5.48-.37-4.73-.7-11.43,2.45-13.76-1.98-2.26-4.3,3.48-8.51,5.96-12.59,4.33-7.12,8.18-14.29,6.14-23.36ZM251.3,157.28c5.63,6.52,12.75,7.11,20.42,5.87,11.49-1.87,16.75-4.77,19.12-11.21-13.11,3.88-25.84,8.02-39.53,5.35ZM292.59,88.57c4.65-.08,8.92,1.06,13.06,2.99,1.52.71,3.39,2.39,4.77.36,1.33-1.96,0-3.83-1.56-5.29-5.21-4.87-22.6-5.6-28.28-1.21-1.13.87-2.08,1.86-1.45,3.36.67,1.6,2.24,1.27,3.5,1.13,3.33-.37,6.64-.88,9.95-1.34ZM370.02,122.23c-1.64-6.39-5.19-7.83-9.58-4.51-5.7,4.31-7.45,10.81-9.15,19.29,7.46-5.47,4.23-20.71,18.73-14.78ZM286.77,107.46c.29,2.63-.06,6.46,3.61,6.6,3.59.14,4.05-3.68,4.14-6.45.1-2.82-.29-6.36-4.14-6.33-3.58.03-3.46,3.33-3.61,6.17ZM254.34,105.42c-.21-2.89-.62-6.31-3.71-6.28-3.53.03-2.99,3.78-3.06,6.28-.07,2.58-.28,6.17,3.33,6.06,3.33-.1,3.18-3.61,3.44-6.06ZM263.46,172.46c7.79,3.88,14.6,2.46,19.27-3.61-5.52,3.33-11.96,1.46-19.27,3.61Z"/>
      <path class="cls-2" d="M375.57,215.55c2.07,3.33,2.85,6.9,2.79,10.87-.18,10.31-.17,20.62,0,30.93.06,3.78-1.36,5.65-5.02,6.67-4.28,1.2-8.42,2.96-12.53,4.69-5.33,2.24-4.63,5.28-.84,8.49,3.74,3.18,7.4,6.48,11.32,9.42,2.14,1.61,2.88,2.64,1.39,5.38-18.52,34.13-36.72,68.45-57.7,101.16-14.52,22.64-29.58,44.94-44.4,67.38-.49.75-.9,1.67-1.59,2.14-2.58,1.76-3.11,5.48-6.37,6.53-1.18-4.28-6.45-4.6-8.1-8.73-7.63-19.13-12.48-39.08-17.43-58.98-4.12-16.59-7.93-33.31-10.77-50.16-2.36-14.02-5.28-28.03-5.62-42.36-.15-6.23-1.69-12.37-1.36-18.69.17-3.28,1.03-5.22,4.39-6.53,5.2-2.02,10.1-4.83,15.12-7.33,1.41-.7,2.9-1.4,3.11-3.22.25-2.22-1.7-2.23-3.01-2.93-9.18-4.86-9.69-6.24-3.28-14.4,6.88-8.75,14.27-17.09,21.44-25.6,2.23,1.34,4.45,2.68,6.68,4.02-.64,2.73-1.29,5.45-1.94,8.18-2.71,3.53-4.16,7.9-4.48,11.95-1,12.89-4.27,25.39-6.07,38.13-2.13,15.1-4.14,30.12-4.22,45.37-.01,2.64.75,5.38.27,7.92-3.02,16.22-.3,32.37,1.73,48.24,2.37,18.58,3.78,37.45,9.24,55.57.87,2.87-1.36,7.73,3.85,7.72,4.54,0,4.75-4.49,5.47-7.88.27-1.28.05-2.67.06-4l-.1.17c1.39-.71,1.55-1.93,1.38-3.29-.15-.35-.06-.61.27-.8,3.56-.52,2.46-3.21,2.5-5.37l.02-.07c1.2-.54,1.42-1.56,1.35-2.73l-.07.04c2.29.14,5.39-.02,5.08-2.67-.51-4.35,2.84-7.93,1.66-12.18l-.06.05c1.32-.51,1.54-1.57,1.41-2.8,0,0-.12.13-.12.13,3.84-3.02,7.95-6.24,7.96-11.47,0-3.86,1.77-6.69,2.99-9.96,3.47-9.27,9.57-17.85,8.01-28.54l-.09.08c1.39.1,3.18-.19,3.38-1.44,1.25-7.87,8.27-14.22,6-22.98l-.11.06c.21-.03.59-.06.59-.1,0-.31-.06-.62-.1-.93.01-1.04-.1-2.13.99-2.8,7.44-4,5.09-11.43,6.21-17.65l-.28-.48.33-.45c6.16.26,5.11-5.22,5.92-8.35,2.61-10.04,7.97-19.07,10.38-29.11,1.92-7.98,7.2-15.14,5.86-23.9-.16-.32-.09-.56.23-.73,2.92-.22,3.91-2.04,3.88-4.7-.39-1.88-.77-3.76-1.16-5.64.64-1.1,1.28-2.19,1.92-3.29,4.05-1.24,3.73-3.99,2.44-7.07l.04-.37c2.97-.27,1.95-2.04,1.36-3.64l.05-.26c2.79-.4,1.96-2.17,1.43-3.81l.46.05-.45-.11c2.57-.53,1.9-2.29,1.49-3.95l.07.48-.11-.47c4.6-.97,3.07-4.43,2.97-7.31l.1-.25c1.36-.88,1.47-2.23,1.38-3.65.18-.69.36-1.39.54-2.08,2.5-.56,2.33-2.31,1.87-4.19v-.03c6.24-3.24,10.5-1.1,13.68,4.73.9,1.65,1.87,3.68,4.28,3.86Z"/>
      <path class="cls-4" d="M376.82,126.73c.22-2.92-.14-5.74-.89-8.61-2.76-10.53-12.06-14.33-21.15-8.39-4.03,2.64-6.94,6.31-8.8,10.77-.7,1.68-1.27,3.51-3.53,3.47-2.21-.04-3.83-1.14-4.6-3.28-4.66-12.96-10.56-25.35-8.33-40.12,2.95-19.53-7.08-30.33-26.91-30.84-7.37-.19-14.73-.2-22.1,1.07-5.28.91-11.09,1.28-15.9-1.08-7.39-3.62-10.84.24-14.12,5.66-.22-1.51-.13-3.03-1.98-3.89-9.44-4.39-11.87-12.96-9-22.78,2.3-7.86,6.23-12.29,13.95-14.06,2.39-.55,4.02-2.46,5.58-4.54,4.9-6.51,12.99-8.44,20.17-4.61,6.19,3.29,11.62,3.27,17.43-.98,8.2-6,16.28-2.82,23.62,1.88,4.73,3.03,8.79,4.53,14.8,3.51,9.45-1.61,14.34,6.28,18.48,12.98,2.54,4.11,5.3,5.85,9.7,7.01,6.59,1.73,11.91,4.7,15.91,11.49,7.7,13.1,9.97,26.4,7.42,41.1-.83,4.79-.74,9.91-.08,14.74,1.56,11.52-5.63,19.94-9.67,29.49Z"/>
      <path class="cls-1" d="M79.37,316.64c3.58,16.39,2.37,33.27,5,49.77.48,2.99.93,5.66,3.41,7.6-6.41,10.6-16.53,17.21-26.21,24.26-10.2,7.43-10.28,7.32-18.37-.98-.64-7.05-4.45-12.23-9.86-16.38-4.19-3.21-8.52-6.22-12.79-9.32-.64-2.4-1.26-4.8-3.03-6.69-.39-.91-.78-1.81-1.17-2.72-.44-2.46-1.02-4.87-2.82-6.77,0,0,.06.06.06.06-.26-2.65-1.1-5.09-2.68-7.25.11-.27.08-.53-.1-.77-.39-2.47-.72-4.97-2.65-6.84,0,0,.05.03.05.03-.11-3.56-.23-7.12-.34-10.67.53-.78,1.07-1.56,1.6-2.34,2.86-.66,5.12.64,7.28,2.25,2.97,2.22,4.73,5.83,8.35,7.32.07,2.99,3.96,4.42,3.72,6.86-.6,6.09,3.53,5.97,7.22,6.12,6.81.28,11.52-2.74,13.08-10.42,3.76,7.23,2.81,14.84,4.53,22.26,4.43-3.06,4.7-6.99,3.93-10.65-1.48-6.99-2.55-13.71,1.78-20.18.77-1.15,1.1-3.29.56-4.48-3.23-7.15,2.55-8.6,6.71-11.13,1.59-.96,4.22.22,5.06-2.46-2.81-1.78-5.47-.52-7.47.99-6.98,5.26-12.39,2.26-17.61-2.76-1.77-1.71-3.43-3.57-5.38-5.05-3.65-2.79-4.18-6.05-2.05-9.94l-.13.05c5.89.6,11.13,2.97,16.33,5.67,6.12,3.18,12.46,5.96,18.7,8.91,0,0,.07.05.07.05.84.5,1.69.99,2.53,1.49,0,0-.04-.04-.04-.04.46.46.91.93,1.37,1.39,0,0-.06-.05-.06-.05-.02,1.18.45,2.12,1.41,2.81Z"/>
      <path class="cls-4" d="M262.52,196.66c17.69,4.9,33.55-1.02,49.14-8.39,4.84-2.29,9.61-4.71,14.88-7.3.81,3.82-1.35,5.99-3,8.16-9.8,12.88-22.17,22.67-36.44,30.19-2.35,1.24-4.55,2.76-6.82,4.16-.91-1.41-1.82-2.82-2.74-4.24l.11.1c-1.22-3.88-3.33-7.46-3.48-12.84-6.07,7.2-6.29,15.08-8.07,22.39-.39.47-.77.94-1.16,1.41-3.47-2.41-3.52-6.73-1.88-8.97,3.62-4.94,4.06-11.36,8.18-15.83,3.03-3.28,1.37-3.74-1.79-5.27-2.26-1.1-7.13,2.08-6.93-3.58Z"/>
      <path class="cls-1" d="M64.52,283.11c-.04.38.04.75.23,1.08.4,2.42.94,4.79,2.47,6.79,0,0-.03-.04-.03-.04.05,5.57,3.07,10.27,5.22,15.69-17.49-6.11-19.71-7.88-25.28-19.81-2.36-9.31-4.83-18.59-7.04-27.93-1.11-4.7-3.35-10.77,2.67-12.98,5.91-2.17,8.24,3.77,10.56,8.05,1.28,2.35,2.23,4.87,3.33,7.32.16,2.23,1.11,4.14,2.43,5.89-.11.29-.08.56.08.82.21,2.54.78,4.95,2.66,6.84l-.02-.04c.03,3.06.79,5.88,2.72,8.32Z"/>
      <path class="cls-4" d="M39.18,296.37c-2.13,3.89-1.6,7.15,2.05,9.94,1.94,1.49,3.6,3.35,5.38,5.05,5.22,5.02,10.63,8.02,17.61,2.76,2-1.51,4.66-2.77,7.47-.99-.85,2.68-3.48,1.5-5.06,2.46-4.16,2.53-9.93,3.98-6.71,11.13.54,1.2.21,3.34-.56,4.48-4.33,6.47-3.26,13.19-1.78,20.18.77,3.66.51,7.59-3.93,10.65-1.71-7.42-.77-15.03-4.53-22.26-1.57,7.68-6.27,10.7-13.08,10.42-3.69-.15-7.82-.04-7.22-6.12.24-2.44-3.65-3.87-3.72-6.86.21-.25.43-.48.66-.71,1.69,1.76,3.71,3.3,4.99,5.32,2.83,4.43,6.06,5.51,10.59,2.5,4.74-3.15,3.81-7.14,1.67-11.1-3.36-6.22-9.15-10.28-14.15-15.01-3.14-2.97-6.85-4.04-11.09-2.7l-.3-.38c4.85-1.44,8.06-4.56,9.63-9.37-.9,3.54-.16,6.38,2.62,9.07,6.36,6.17,14.32,11,17.45,20.01.44,1.28,1.44,1.36,2.71,1.12,4.96-.92,8.95-7.92,5.63-11.35-7.53-7.77-14.86-15.94-24.43-21.45,4.07-.64,4.54-5.54,8.08-6.82Z"/>
      <path class="cls-1" d="M31.1,303.19c9.57,5.51,16.9,13.67,24.43,21.45,3.32,3.43-.68,10.43-5.63,11.35-1.27.24-2.26.15-2.71-1.12-3.12-9.01-11.08-13.85-17.45-20.01-2.78-2.7-3.52-5.54-2.62-9.07.4-.36.8-.73,1.2-1.09.9-.53,1.81-1.06,2.71-1.59l.07.09Z"/>
      <path class="cls-4" d="M244.84,71.49c-.22,1.08-.37,2.18-.69,3.23-1.31,4.34-.45,6.81,4.8,6.29,3.61-.36,7.02.85,10.25,2.36,1.63.76,3.38,1.97,2.83,3.99-.66,2.45-2.94,1.58-4.48,1.14-5.47-1.57-10.94-1.34-16.45-.5.16-5.75-1.49-11.91,3.74-16.52Z"/>
      <path class="cls-3" d="M264.94,230.3c.39-.47.77-.94,1.16-1.41.54,10.92-2.23,21.88-.03,33.98,1.57-2.46,2.51-3.93,3.45-5.4l-.27-.12c.58-.46,1.16-.91,1.74-1.37.96-.89,1.93-1.78,2.89-2.68-.21,1.99-.42,3.98-.62,5.97-2.1.82-2.19,3.24-3.65,4.57-1.42,1.3-2.54,3.82-4.57,3.23-2.01-.58-1.69-3.31-2.2-5.17-1.16-4.18,1.03-8.78-1.57-12.79.2-2.21.41-4.43.61-6.64.64-2.73,1.29-5.45,1.93-8.18.38-1.34.76-2.68,1.14-4.02Z"/>
      <path class="cls-4" d="M47.13,286.82c5.57,11.93,7.79,13.7,25.28,19.81-2.15-5.42-5.17-10.12-5.22-15.69,3.84,6.16,7.36,12.42,6.89,20.06-6.24-2.95-12.58-5.73-18.7-8.91-5.2-2.7-10.43-5.07-16.33-5.67.32-.3.72-.93.94-.87,8.76,2.27,7.89-3.27,7.14-8.74Z"/>
      <path class="cls-8" d="M353.82,216.91s-.1.25-.1.25c-.99,2.44-1.98,4.87-2.97,7.31l.11.47s-.07-.48-.07-.48c-.5,1.32-1,2.63-1.5,3.95l.45.11s-.46-.05-.46-.05c-.52,1.26-1.92,2.18-1.43,3.81,0,0-.05.26-.05.26-.45,1.21-.91,2.43-1.36,3.64l-.04.37c-.5.67-1,1.33-1.5,2,.33-5.57,2.34-10.69,3.96-15.95,2.49-8.11,7.68-15.53,6.57-24.6.29-.29.56-.59.81-.91,5.11,2.64,1.9,6.45,1.39,9.88,0,0-.01.03-.01.03-.62,1.4-1.25,2.79-1.87,4.19-.18.69-.36,1.39-.54,2.08-1.32.89-1.2,2.33-1.38,3.65Z"/>
      <path class="cls-4" d="M249.15,58.1c-.06,2.61-.91,4.91-2.74,6.8.45-2.45-1.6-5.92,2.74-6.8Z"/>
      <path class="cls-4" d="M64.52,283.11c-1.93-2.44-2.68-5.26-2.72-8.32,2.85,2.14,2.91,5.19,2.72,8.32Z"/>
      <path class="cls-4" d="M67.22,290.98c-1.53-2.01-2.07-4.38-2.47-6.79,3.95,1.13,2.11,4.36,2.47,6.79Z"/>
      <path class="cls-8" d="M351.68,197.98c.25-1.26.5-2.52.75-3.78,2.72-.96,2.79,1.6,3.81,2.89-.25.32-.52.62-.81.91-1.25,0-2.5-.01-3.75-.02Z"/>
      <path class="cls-4" d="M61.83,274.83c-1.87-1.9-2.45-4.3-2.66-6.84,3.08,1.43,2.82,4.16,2.66,6.84Z"/>
      <path class="cls-4" d="M257.17,193.84c2.01.5,3.87,1.3,5.35,2.82-2.19-.17-4.92.7-5.35-2.82Z"/>
      <path class="cls-4" d="M59.09,267.17c-1.32-1.75-2.27-3.66-2.43-5.89,3.53.84,2.34,3.63,2.43,5.89Z"/>
      <path class="cls-4" d="M246.23,66.14c.2,1.56.09,3.02-1.14,4.19-.06-1.51-.22-3.06,1.14-4.19Z"/>
      <path class="cls-4" d="M250.51,55.35c-.05,1.11-.26,2.13-1.37,2.71-.03-1.15.29-2.12,1.37-2.71Z"/>
      <path class="cls-4" d="M251.79,189.82c1.08.06,1.86.59,2.35,1.55-.79-.52-1.57-1.03-2.35-1.55Z"/>
      <path class="cls-4" d="M76.68,312.54c-.85-.5-1.69-.99-2.53-1.49.85.5,1.69.99,2.53,1.49Z"/>
      <path class="cls-4" d="M79.37,316.64c-.96-.69-1.43-1.62-1.41-2.81,1.1.62,1.4,1.64,1.41,2.81Z"/>
      <path class="cls-4" d="M250.5,188.1c.45.6.89,1.19,1.34,1.79-.45-.6-.89-1.19-1.34-1.79Z"/>
      <path class="cls-4" d="M247.75,184.5c.4.47.81.94,1.21,1.41-.4-.47-.81-.94-1.21-1.41Z"/>
      <path class="cls-4" d="M246.45,182.83c.44.56.87,1.12,1.31,1.68-.44-.56-.87-1.12-1.31-1.68Z"/>
      <path class="cls-4" d="M254.42,191.56c.42.36.83.72,1.24,1.07-.42-.36-.83-.72-1.24-1.07Z"/>
      <path class="cls-4" d="M78.02,313.89c-.46-.46-.91-.93-1.37-1.39.46.46.91.93,1.37,1.39Z"/>
      <path class="cls-1" d="M393.55,634.28c.31-.39.61-.78.92-1.17.46-.53.91-1.07,1.36-1.6.47-.74.95-1.48,1.42-2.23.56-.22,1.13-.43,1.69-.64,13.33,6.65,24.29,16.53,35.5,26.06,1.24,1.06,1.29,2.22.4,3.51-8.02,4.31-6.77,13.47-10.43,20.07-.94,1.68-.68,3.98-2.68,5.8-6.06-4.65-9.82-11.41-14.89-16.96-5.44-5.95-10.58-12.17-15.62-18.46-1.73-2.16-4.28-4.21-3.4-7.64,0,0-.08,0-.08,0,.45-.48.9-.95,1.34-1.43l-.02.03c.99-.62,1.65-1.42,1.45-2.68l-.02.08c1.79-.05,2.45-1.35,3.04-2.73Z"/>
      <path class="cls-7" d="M434.84,658.21c.89-1.29.84-2.46-.4-3.51-11.22-9.53-22.17-19.41-35.5-26.06-.21-.83-.43-1.66-.64-2.49.17-.37.25-.77.25-1.18.45-.46.9-.92,1.35-1.38,1.26.07,2.52.13,3.78.2.28.71.74,1.05,1.52.75,13.1,6.32,23.76,16.18,35.44,24.55.72.64,1.44,1.28,2.16,1.91-.2.3-.15.53.17.7-2.62,2.29-3.79,6.38-8.13,6.51Z"/>
      <path class="cls-4" d="M371.91,366.33c6.24,0,11.37-.04,16.5.02,1.81.02,3.91.24,3.94,2.59.04,2.37-2.07,2.7-3.87,2.65-11.13-.25-22.2.54-33.29,1.33-2.41.17-5.62-.11-5.9-3.04-.31-3.2,3.28-2.41,5.11-2.88,6.11-1.55,12.42-.3,17.51-.68Z"/>
      <path class="cls-4" d="M263.86,500.64c-.13-4.38,1.16-7.6,5.7-7.65,4.42-.05,6.13,3.4,6.23,7.08.1,3.68-1.47,7.41-5.87,7.28-3.91-.11-6.55-2.55-6.06-6.7Z"/>
      <path class="cls-4" d="M393.55,634.28c-.59,1.38-1.26,2.68-3.04,2.73.08-1.95,1.17-2.78,3.04-2.73Z"/>
      <path class="cls-4" d="M398.49,622.09c.45,0,.9,0,1.35,0,.02.5.04,1,.06,1.5-.45.46-.9.92-1.35,1.38-.02-.96-.04-1.92-.06-2.88Z"/>
      <path class="cls-4" d="M398.3,626.15c.21.83.43,1.66.64,2.49-.56.21-1.13.43-1.69.64-.11-1.2-.03-2.33,1.05-3.14Z"/>
      <path class="cls-4" d="M390.52,636.93c.2,1.26-.47,2.06-1.45,2.68.05-1.13.37-2.11,1.45-2.68Z"/>
      <path class="cls-4" d="M395.83,631.51c-.46.53-.91,1.06-1.36,1.6.45-.53.91-1.06,1.36-1.6Z"/>
      <path class="cls-4" d="M389.09,639.58c-.45.48-.9.95-1.34,1.43.45-.48.9-.95,1.34-1.43Z"/>
      <path class="cls-4" d="M250.42,562.49c.28,4.19-1.91,6.6-5.78,6.47-4.07-.15-7.46-2.39-7.32-6.94.11-3.66,1.72-7.29,6.26-7.02,4.35.26,6.42,3.33,6.84,7.5Z"/>
      <path class="cls-6" d="M273.26,259.28c.21-1.99.42-3.98.62-5.96,5.34-4.55,9.64-10.56,16.99-12.37,1.44.77,1.74,2.95,3.74,3.02l.09-.07c-.15,4.62,2.62,7.83,5.3,11.09,1.65,2.71,3.42,5.38,3.33,8.75-1.56,3.89-4.49,6.73-7.73,9.07-2.89,2.1-3.7,4.57-3.73,7.97-.28,32.19-1.12,64.36-4.01,96.44-1.75,5.25-1.46,10.54-.22,15.83.13,1.24.25,2.48.38,3.72l-.17.46c-.24.42-.49.85-.73,1.27-.85,6.24-4.53,11.5-6.06,17.5,0,0,.12-.13.12-.13-1.05.64-1.31,1.68-1.41,2.8,0,0,.06-.05.06-.05-2.86,4.67-5.26,9.55-6.74,14.85l.07-.04c-1.07.6-1.3,1.62-1.35,2.73,0,0-.02.07-.02.07-1.4,1.53-2.21,3.33-2.5,5.37-.33.19-.42.45-.27.8-1.15.8-1.36,2.01-1.38,3.29,0,0,.1-.17.1-.17-1.83,3.17-3.66,6.35-6.2,10.74-3.99-19.95-7.24-38.58-9.43-57.4,1.56-1.37,1.2-3.26,1.35-5.01,3.15-37.93,11.24-74.78,24.5-110.47,1.39-3.74,1.67-6.97-.27-10.79-2.09-4.13-4.17-8.47-4.41-13.31Z"/>
      <path class="cls-7" d="M351.68,197.98c1.25,0,2.5.01,3.75.02,1.11,9.07-4.08,16.5-6.57,24.6-1.62,5.27-3.63,10.39-3.96,15.95,0,0,.04-.05.04-.05-1.25.63-1.79,1.39-.49,2.51-.17.87-.33,1.74-.5,2.61-.64,1.1-1.28,2.19-1.92,3.29-7.74,7.03-15.12,14.45-24.25,19.86-4.23,2.51-6.89,2.52-9.42-2.08-2.45-4.47-5.51-8.6-8.3-12.89-1.36-2.93-3.09-5.61-5.38-7.91l-.09.07c-.49-2.15-1.94-3.89,1.36-5.84,19.12-11.31,36.18-25.57,54.15-38.53,1.48.61.93-.79,1.29-1.29l.28-.32Z"/>
      <path class="cls-7" d="M290.86,240.95c-7.35,1.81-11.65,7.82-16.99,12.37-.96.88-1.92,1.78-2.88,2.67-.58.46-1.16.91-1.74,1.37,0,0,.27.12.27.11-2.07-.41-3.44-1.73-2.86-3.75,2.56-8.95.73-18.19,1.9-27.28.86-6.67,3.85-7.57,9.1-7.1l-.11-.1c-.32,2.51.03,4.68,2.83,5.61,3.5,5.37,6.99,10.73,10.49,16.1Z"/>
      <path class="cls-4" d="M262.24,102.2c2.04,9.07-1.81,16.25-6.14,23.36-2.48,4.08-8.22,8.29-5.96,12.59,2.33,4.43,9.03,1.28,13.76,1.98,1.71.25,3.47.24,5.48.37-4.23,3.94-17.16,4.67-21.22,1.42-2.63-2.11-2.1-4.88-.92-7.31,2.24-4.62,4.88-9.04,7.29-13.57,1.68-3.16,3.46-6.28,4.82-9.58,1.23-2.98,1.94-6.17,2.88-9.26Z"/>
      <path class="cls-4" d="M251.3,157.28c13.69,2.68,26.43-1.46,39.53-5.35-2.37,6.44-7.63,9.35-19.12,11.21-7.67,1.25-14.78.65-20.42-5.87Z"/>
      <path class="cls-4" d="M292.59,88.57c-3.32.46-6.63.97-9.95,1.34-1.27.14-2.83.48-3.5-1.13-.62-1.5.32-2.49,1.45-3.36,5.68-4.39,23.07-3.66,28.28,1.21,1.56,1.46,2.89,3.33,1.56,5.29-1.38,2.03-3.26.35-4.77-.36-4.14-1.93-8.41-3.07-13.06-2.99Z"/>
      <path class="cls-4" d="M370.02,122.23c-14.5-5.93-11.27,9.31-18.73,14.78,1.7-8.49,3.45-14.99,9.15-19.29,4.39-3.32,7.94-1.88,9.58,4.51Z"/>
      <path class="cls-4" d="M286.77,107.46c.15-2.84.03-6.14,3.61-6.17,3.85-.03,4.24,3.51,4.14,6.33-.09,2.77-.56,6.59-4.14,6.45-3.67-.15-3.32-3.97-3.61-6.6Z"/>
      <path class="cls-4" d="M254.34,105.42c-.27,2.45-.11,5.96-3.44,6.06-3.61.11-3.4-3.48-3.33-6.06.07-2.5-.47-6.25,3.06-6.28,3.1-.03,3.5,3.39,3.71,6.28Z"/>
      <path class="cls-4" d="M263.46,172.46c7.31-2.15,13.74-.28,19.27-3.61-4.66,6.07-11.48,7.48-19.27,3.61Z"/>
      <path class="cls-8" d="M280.38,224.85c-2.8-.94-3.15-3.1-2.83-5.61.91,1.41,1.83,2.82,2.74,4.24.03.46.06.92.09,1.38Z"/>
      <path class="cls-8" d="M351.4,198.3c-.36.5.19,1.9-1.29,1.29.43-.43.86-.86,1.29-1.29Z"/>
      <path class="cls-7" d="M288.01,396.76c-.13-1.24-.25-2.48-.38-3.72.49-5.27.9-10.54.22-15.83,2.89-32.08,3.73-64.25,4.01-96.44.03-3.4.84-5.87,3.73-7.97,3.24-2.35,6.17-5.19,7.72-9.07,1.77.36,2.32,1.91,3.17,3.2,4.95,7.47,4.89,7.33,12.93,2.62,7.55-4.42,13.61-10.6,20.07-16.32,1.58,1.4-.62,2.65-.16,4.01-.31.17-.39.41-.23.73-8.58,20.02-15,40.83-22.17,61.36l-.33.45s.28.48.28.48c-2.58,5.7-4.66,11.58-6.21,17.65-1.09.66-.98,1.75-.99,2.8-.33.26-.49.6-.49,1.02,0,0,.11-.06.11-.05-3.13,8.14-6.26,16.28-9.39,24.41,0,0,.09-.08.1-.08-4,10.25-8,20.49-11.99,30.74Z"/>
      <path class="cls-5" d="M339.48,253.24c-6.46,5.72-12.52,11.89-20.07,16.32-8.04,4.71-7.97,4.86-12.93-2.62-.85-1.29-1.4-2.84-3.17-3.2.09-3.38-1.67-6.04-3.32-8.74.03-1.06.05-2.13.08-3.2,2.79,4.28,5.84,8.42,8.3,12.89,2.53,4.6,5.19,4.59,9.42,2.08,9.12-5.41,16.51-12.83,24.25-19.86.39,1.88.77,3.76,1.16,5.65-.82.22-1.65.43-2.47.64-.37-.33-.75-.66-1.12-.99l-.33,1.14.2-.12Z"/>
      <path class="cls-8" d="M277.65,219.34c-5.24-.47-8.24.43-9.1,7.1-1.17,9.1.67,18.33-1.9,27.28-.58,2.02.79,3.34,2.86,3.75-.94,1.47-1.87,2.94-3.45,5.4-2.19-12.1.57-23.05.03-33.98,1.78-7.31,2.01-15.19,8.07-22.39.15,5.37,2.26,8.95,3.48,12.84Z"/>
      <path class="cls-1" d="M25.77,336.51c-.92-3.44-3.86-5.28-6.18-7.54-4.21-4.1-5.36-8.42-1.81-13.46,4.24-1.33,7.95-.26,11.09,2.71,5,4.73,10.79,8.79,14.15,15.01,2.14,3.96,3.07,7.95-1.67,11.1-4.53,3.01-7.76,1.93-10.59-2.5-1.29-2.01-3.31-3.56-4.99-5.32Z"/>
      <path class="cls-7" d="M252.09,398.85c-6.31-46.4-2.25-92.28,6.99-137.89.8-3.93,1.46-7.88,2.18-11.82,2.6,4.01.42,8.6,1.57,12.79.51,1.86.19,4.58,2.2,5.17,2.03.59,3.15-1.93,4.57-3.23,1.46-1.34,1.56-3.75,3.65-4.57.24,4.83,2.32,9.18,4.41,13.3,1.94,3.82,1.66,7.05.27,10.79-13.26,35.69-21.35,72.53-24.5,110.47-.15,1.75.21,3.64-1.35,5.01Z"/>
      <path class="cls-8" d="M269.25,257.36c.58-.46,1.16-.91,1.74-1.37-.58.46-1.16.91-1.74,1.37Z"/>
      <path class="cls-1" d="M300.07,251.8c-.03,1.07-.05,2.14-.08,3.2-2.68-3.27-5.46-6.49-5.31-11.1,2.29,2.3,4.02,4.98,5.38,7.91Z"/>
      <path class="cls-1" d="M287.85,377.21c.68,5.29.28,10.56-.22,15.83-1.25-5.29-1.53-10.58.22-15.83Z"/>
      <path class="cls-7" d="M287.84,397.22c-.24.42-.49.85-.73,1.27.25-.43.49-.85.73-1.27Z"/>
      <path class="cls-8" d="M344.94,238.5c-.16.84-.32,1.68-.49,2.51-1.3-1.12-.77-1.89.49-2.51Z"/>
      <path class="cls-7" d="M340.72,253.2c-.42.65-.9.68-1.45.15.11-.38.22-.76.33-1.14.37.33.75.66,1.12.99Z"/>
    </g>
  </g>
</svg>