<?xml version="1.0" encoding="UTF-8"?>
<svg id="Layer_1" data-name="Layer 1" xmlns="http://www.w3.org/2000/svg" width="470.82" height="232.94" viewBox="0 0 470.82 232.94">
  <defs>
    <style>
      .cls-1 {
        fill: #f7aa47;
      }

      .cls-2 {
        fill: #3b7e7a;
      }

      .cls-3 {
        fill: #e46d2d;
      }

      .cls-4 {
        fill: #3e8280;
      }

      .cls-5 {
        fill: #fbab4b;
      }

      .cls-6 {
        fill: #214f84;
      }

      .cls-7 {
        fill: #3c7e7c;
      }

      .cls-8 {
        fill: #122b47;
      }
    </style>
  </defs>
  <g>
    <path class="cls-2" d="M18.09,155.57c12.55-19.36,24.81-38.27,37.07-57.19,2.89-4.46,5.83-8.88,8.61-13.4q6.19-10.05,18.18-8.26c.04,2.51-1.74,4.15-2.96,6.03-14.11,21.66-28.55,43.11-42.2,65.06-4.45,7.15-9.44,10.21-18.71,7.77Z"/>
    <path class="cls-2" d="M23.75,74.97c10.76-.02,18.64,8.8,18.46,20.65-.19,12.44-8.01,21.79-18.39,21.98-10.31.2-18.24-9.02-18.18-21.12.07-13.43,6.86-21.5,18.11-21.52ZM32.12,95.78c-.1-6.69-3.29-10.87-8.18-10.73-5.15.15-8.92,4.92-8.88,11.23.04,6.28,4.07,10.88,9.32,10.62,4.81-.24,7.84-4.6,7.75-11.11Z"/>
    <path class="cls-2" d="M59.8,137.32c.03-16.62,11.06-25.96,23.79-22.02,9.56,2.95,11.81,10.85,12.68,19.49.76,7.53-3.93,17.28-10,19.99-6.76,3.02-13.48,2.96-19.5-2.08-5.42-4.54-6.79-10.72-6.97-15.38ZM86.37,135.65c.04-6.72-2.83-10.57-8.02-10.76-5.66-.2-8.94,3.57-9.09,10.47-.14,6.44,3.52,11.34,8.5,11.34,5.48,0,8.57-3.97,8.61-11.06Z"/>
  </g>
  <g>
    <rect class="cls-8" x="179.34" y="11" width="284.67" height="214" rx="16" ry="16"/>
    <path class="cls-6" d="M444.42,201.92h-240.5c-2.21,0-4-1.79-4-4V44.92c0-2.21,1.79-4,4-4s4,1.79,4,4v149h236.5c2.21,0,4,1.79,4,4s-1.79,4-4,4Z"/>
    <rect class="cls-1" x="222.67" y="146.92" width="27.75" height="39"/>
    <rect class="cls-3" x="266.84" y="123.17" width="27.75" height="62.75"/>
    <rect class="cls-5" x="313.34" y="101.17" width="27.75" height="84.75"/>
    <rect class="cls-4" x="357.84" y="76.17" width="27.75" height="109.75"/>
    <rect class="cls-7" x="403.59" y="43.17" width="27.75" height="142.75"/>
  </g>
</svg>