<?xml version="1.0" encoding="UTF-8"?>
<svg id="Layer_1" data-name="Layer 1" xmlns="http://www.w3.org/2000/svg" width="380.12" height="695.82" viewBox="0 0 380.12 695.82">
  <defs>
    <style>
      .cls-1 {
        fill: #e8882d;
      }

      .cls-2 {
        fill: #83402d;
      }

      .cls-3 {
        fill: #0a1523;
      }

      .cls-4 {
        fill: #1f4b7a;
      }

      .cls-5 {
        fill: #ed732e;
      }

      .cls-6 {
        fill: #f2a945;
      }
    </style>
  </defs>
  <path class="cls-3" d="M57.24,259.96c-.54-2.3-.95-4.17-3.92-5.22-11.27-4-20.83-10.64-28.51-19.93-2.72-3.29-3.25-7.92-6.8-10.64-.42-1.01-.84-2.02-1.26-3.03l.06.08c-2.02-8.21-4.38-16.18-2.51-25.02,2.62-12.36,9.49-21.76,18.22-30.18,8.12-7.83,12.24-17.18,11.56-28.57-.28-4.78-.15-9.58-.41-14.35-.95-17.06,6.98-29.51,21.42-37.07,17.3-9.06,31.09-20.36,38.16-39.46C114.78,15.48,161.29-1.17,187.26,5.55c3.92,1.01,7.82,1.38,11.81,1.35l.03.02c1.03.48,2.07.97,3.1,1.45,4.64,4.29,10.56,4.32,16.32,4.94,17.68,1.9,29.05,12.3,38.65,26.6,5.76,8.58,6.63,16.47,4.71,26-.77,3.83,1.14,8.26,3.53,11.96,1.16,1.8,1.51,4.23-.04,5.99-1.44,1.63-2.81-.21-4.14-.85-3.16-1.51-4.36.29-5.02,2.98-1.12-2.1-1.99-4.42-5.16-3.98-1.58.22-3.38.13-3.76-1.94-.37-2.04,1.29-2.69,2.8-3.25,3.26-1.2,2.51-3.55,1.73-5.91-4.75-14.22-14.07-24.12-27.99-29.72-5.75-2.31-9.23-2.15-9.05,5.76.13,5.58-2.73,10.81-5.7,15.56-11.38,18.18-25.8,33.63-42.38,47.18-4.73,3.87-8.61,4.18-14.04.45-9.61-6.59-21.85-2.82-26.11,7.08-4.19,9.72-.34,20.31,10,27.58,4.21,2.96,9.06,4.31,13.91,5.78,6.26,1.9,8.4-3.51,12.11-7.49,1.31,4.66-.13,8.27-2.86,9.14-6.83,2.17-5.37,7.16-5.61,12.03-1.02,20.49-2.29,40.96-15.96,57.98-.93.05-1.85.1-2.78.15-.62.13-1.25.27-1.87.4-1.74.89-3.49,1.78-5.23,2.66-1.67.26-3.29.63-4.4,2.07-4.07.85-7.78,2.55-11.25,4.83l.06-.08c-2.69,0-4.53,1.65-6.38,3.29-9.05,3.28-17.74,7.32-25.94,12.38-4.57,1.51-8.88,3.5-12.52,6.73-3.04.96-5.69,2.59-8,4.77-.87.17-1.74.34-2.61.51Z"/>
  <path class="cls-3" d="M289.31,594.62c8.23,16.22,4.02,34.21,7.3,51.15,2.3,11.9.27,24.24,4.25,36.13,1.75,5.2-1.35,11.28.26,17.17.83,3.05-2.49,3.7-4.97,3.47-16.67-1.57-33.25,2.52-50,.3-8.07-1.07-16.26,2.23-24.56,1.38-14.16-1.44-28.49-1.52-42.59-1.24-35.59.71-71.14-1.66-106.7-.31-8.69.33-17.22-1.6-26.06-.34-8.34,1.18-10.24-2.83-9.62-11.04,1.36-18.05,4.98-35.65,8.87-53.24,2.27-10.25,4.37-20.65,8.75-30.12,2.62-5.66,2.54-11.79,5.17-17.4,1.65-3.52,3.49-4.92,6.83-5.37,5.32,3.31,11.01,5.53,17.32,5.92l.08-.11c2.83,2.39,6.25,2.97,9.78,3.23l-.09-.12c3.92,2.38,8.27,3.23,12.75,3.62l-.04-.26c3.89,2.38,8.32,2.82,12.68,3.5l.22-.34c11.38,4.21,23.33,5.34,35.28,6.43.98,1.06,2.18.99,3.43.7,2.59.1,5.17.2,7.76.3,3.16.44,6.31,1.24,9.47,1.25,11.83.06,23.75,2.42,35.48-.97v.06c1.31,0,2.4-.44,3.07-1.65l.13-.08c.52-.49,1.05-.99,1.57-1.48l.04-.05c.49-.53.98-1.06,1.47-1.58l.08-.12c1.24-.65,1.7-1.72,1.65-3.06h0c.48-.52.96-1.03,1.45-1.55l.15-.23c1.33-.58,1.58-1.74,1.64-3.02h0c1.37-.64,1.53-1.92,1.68-3.2l-.05.08c1.85-1.8,2.67-4.08,3.08-6.56l.32-.26-.16-.37c6.52-13.33,8.36-27.77,9.99-42.26.76,0,1.52,0,2.28-.01.73,6.33,1.06,12.74,2.28,18.98,2.17,11.1,3.5,22.54,10.22,32.23l-.03.16c3.27,7.53,9.03,9.79,16.61,7.48,7.22-2.2,14.33-4.76,21.49-7.17Z"/>
  <path class="cls-2" d="M138.16,222.25c13.68-17.02,14.94-37.49,15.96-57.98.24-4.88-1.22-9.86,5.61-12.03,2.73-.87,4.17-4.48,2.86-9.14-3.71,3.98-5.85,9.39-12.11,7.49-4.85-1.47-9.7-2.82-13.91-5.78-10.35-7.28-14.19-17.87-10-27.58,4.26-9.89,16.5-13.66,26.11-7.08,5.43,3.72,9.31,3.41,14.04-.45,16.57-13.55,31-29,42.38-47.18,2.97-4.75,5.83-9.97,5.7-15.56-.18-7.91,3.3-8.08,9.05-5.76,13.91,5.6,23.24,15.5,27.99,29.72.79,2.35,1.53,4.7-1.73,5.91-1.51.56-3.17,1.2-2.8,3.25.37,2.08,2.18,2.16,3.76,1.94,3.17-.44,4.04,1.89,5.16,3.98,0,0,.26.67.26.67.08,3.08-.45,6.28,1.64,8.99.06,8.95,1.62,17.7,3.39,26.43.02,1.04.04,2.08.06,3.11,0,0-.12.19-.12.19-4.9-3.55-8.89-7.18-6.32-14.39,1.21-3.39.57-7.5-2.95-10.11-1.22-.9-2.7-.93-3.58.25-2.51,3.35-3.44,7.16-2.2,11.26.38,1.24,1.08,2.47,1.9,3.48,3.83,4.76,7.75,9.44,11.64,14.15.51,2.57.96,5.14-.26,7.65-3.39,5.24-8.81,2.31-15.55,2.99,7.29,4.27,12.26,6.33,17.19.2.65.15,1.31.3,1.96.45-.44,11.84-3.86,23.09-7.94,33.98-5.3,14.15-17.05,21.14-31.82,20.62-8.72-.31-16.53-3.6-24.32-7.06-9.02-4.01-16.89-9.92-25.87-16.89,6.26,15.31,14.35,26.89,27.36,34.38,5.93,3.42,7.41,7.65,5.48,14.53-1.36,4.84-4.04,10.79.95,15.68.06,3.21,2.32,5.16,4.24,7.24,4.92,5.32,9.94,10.54,14.92,15.81-5.67-.69-5.38,2.54-4.22,6.38,3.8,12.54,4.86,25.49,5.59,38.47.11,1.95,1.12,4.72-1.32,5.71-2.17.88-3.88-1.32-5.41-2.63-9.28-7.93-18.58-15.84-27.62-24.04-10.27-9.31-10.15-9.43-20.98-.22-1.21,1.03-2.56,1.89-3.8,2.89-17.91,14.46-21.85,13.64-32.98-7.08-7.79-14.49-15.51-29.02-23.26-43.54.13-1.09.26-2.18.38-3.26l-.06.08c1.48.09,2.95.18,4.43.27,8.34,18.38,18.53,35.75,28.86,53.05,3.29,5.5,7.31,7.01,12.78,2.24,4.98-4.35,10.36-8.26,15.68-12.2,4.67-3.46,5.57-6.77,1.11-11.33-12.44-12.69-24.63-25.62-36.92-38.46-.14-1.23-.28-2.45-.42-3.68ZM222.01,155.44c6.85,4.85,14.25,7.63,22.45,8.16,3.19.2,6.4-.47,6.53-4.09.14-3.58-3.48-3.43-5.96-3.63-7.57-.6-15.23.6-23.03-.45ZM226.29,83.11c1.53.02,3.88,1.04,4.33-1.63.36-2.14-1.63-3.05-3.33-3.93-6.06-3.15-19.36-.38-23.63,4.98-.84,1.05-1.77,2.2-.52,3.44,1.16,1.16,2.47.34,3.68-.17,6.17-2.64,12.39-4.9,19.46-2.69ZM221.61,109.44c-.39-3.18-.22-7.78-4.52-7.78-4.23,0-4.69,4.57-4.59,7.97.1,3.39.68,7.73,5.2,7.51,4.23-.2,3.72-4.37,3.91-7.7ZM157.57,136c-6.43-17.08-10.97-21.3-19.29-18.36,8.96,2.82,11.29,11.82,19.29,18.36Z"/>
  <path class="cls-2" d="M87.06,529.58c.05-2.08.1-4.16.16-6.24,1.5.67,3.01,1.33,4.51,1.99,0,0,.09-.19.09-.19.55.54,1.09,1.08,1.64,1.63l-.03-.03c.54.54,1.09,1.09,1.63,1.63l-.02-.04c.51.67,1.03,1.35,1.54,2.02,12.93,10.51,28.32,10.22,43.37,8.65,35.86-3.74,70.2-14.62,104.78-24.12,12.95-3.56,17.96-10.98,18.3-23.83.23-8.59-1-16.97-2.7-25.33-2.12-10.43-2.87-11.12-13.24-8.85-28.89,6.3-57.92,11.43-87.65,10.54-12.85-.38-25.54.18-37.72,4.84-1.43.54-3.15,1.56-3.96-.71-.62-1.72.28-3.27,1.82-3.98,4.33-2.02,8.6-4.63,13.18-5.55,6.05-1.22,6.38-3.75,4.51-8.86-8.73-23.75-14.17-48.48-21.36-72.7-6.94-23.4-11.45-47.73-25.49-68.52-1.46-2.17-2.5-4.58-.24-7.13,3.68,1.7,5.31,4.74,7.14,7.64,8.19,12.98,12.76,27.39,17.01,42,9.51,32.7,17.98,65.7,28.63,98.06,2,6.08,4.88,8.65,11.83,8.97,39.05,1.8,76.52-7.92,114.4-14.68,2.74-.49,5.13-1.38,6.21-4.3,7.99-21.72,15.93-43.32,16.85-66.97.9-22.91-5.95-43.52-15.62-63.64-.93-1.94-3.37-4.69-.22-6.17,2.35-1.1,3.28,2.11,4.19,3.84,10.79,20.23,17.79,41.46,17.59,64.75-.15,17.48-7.28,34.45-3.64,52.17-1.75,5.87,1.01,13.33-7.16,16.99,4.42,2.37,8.08.78,11.59,1.11,3.69,6.99,5.09,15.09,10.27,21.36.57.63,1.13,1.26,1.7,1.89.67.95,1.34,1.91,2.01,2.86.4.42.8.85,1.19,1.27.69.68,1.39,1.37,2.08,2.05,0,.35-.03.7-.09,1.05.58,9.01-6.38,10.56-12.64,13.03-6.63,2.62-13.12,5.6-19.67,8.42-2.35.92-1.18,3.09-1.68,4.67-4.85,2.3-11.71-.39-14.9,6.02-3.04-.19-4.91,1.28-6.23,3.97-3.61,7.36-9.75,11.4-17.4,14.11-26.57,9.42-53.62,17.28-81.45,21.52-23.85,3.64-48.19,6.89-69.72-9.1-.69-.52-1.37-1.05-2.06-1.57l.05.03-1.63-1.62.19-.26c-.65-1.57-1.31-3.14-1.96-4.71Z"/>
  <path class="cls-2" d="M277.45,200.27c.37.22.77.31,1.2.27,1.19.49,2.39.99,3.58,1.48h.02c1.06,1.09,2.11,2.17,3.17,3.25,0,0-.03-.03-.03-.03.54,1.09,1.07,2.18,1.61,3.27,13.46,28.37,18.47,59.7,30.85,88.44-.21.78-.42,1.56-.63,2.34,0,0,.15.14.15.14-1.79-.05-3.47.19-4.65,1.75l-.09.05c-1.14.48-2.28.97-3.43,1.45-4.11.99-8.24,1.91-12.33,2.97-6.21,1.61-10.16.1-11.21-6.96-1.13-7.6-4.6-13.5-11.63-17.87-5.66-3.51-10.26-8.86-14.23-14.44-2.17-6.21-5.63-11.82-7.3-18.35-1.75-6.86.12-10.88,5.73-14.67,6.47-4.36,13.54-6.16,21.49-6.11-1.42-3.31-3.54-2.84-5.25-2.79-11.48.34-19.89,6.38-26.77,14.93-1.47,1.83-2.43,4.9-5.02,4.14-2.74-.79-3.19-4.01-3.41-6.71-.58-7.16,4.27-13.76,12.59-17.25,1.23,1.43-.37,6.42,3.41,4.22,7.08-4.13,14.3-7.47,22.55-8.77-6.32-2.82-11.81-.58-17.35,1.71-2.78,1.15-5,4.14-8.61,2.83.97-3.65,6.16-3.13,7.84-7.78-7.29,1.98-12.47,5.24-17.15,9.63-1.83,1.72-3.45,6.13-6.81,3.11-3.34-3-1.96-6.96.85-9.81,3.31-3.35,7.07-6.26,10.63-9.36,1.63-.54,3.69-.5,3.99-2.83.03-.27-.59-.89-.89-.89-2.02.04-3.31,1.11-3.9,3.05-5.15.44-8.13,4.82-12.4,6.83-4.21,1.98-9.37,3.86-12.1-1.06-2.69-4.86,2.07-7.86,5.74-9.8,14.15-7.45,28.62-11.28,43.79-2.45,1.78,1.04,3.98,1.37,5.98,2.03ZM271.06,257.98c.21.08.42.15.63.23l-.64-.22c-.26-6.47.14-12.92.15-19.98-1.1,1.31-2.21,2.63-3.31,3.94-1.42-2.48-2.81-5.2-6.38-3.54-.71.33-1.56,2.03-1.29,2.54,1.63,3.09,4.59.07,6.75,1.23.19.1.5-.03.76-.05,1.22,5.26-2.73,11.6,3.32,15.85Z"/>
  <path class="cls-3" d="M277.45,200.27c-2-.66-4.2-.99-5.98-2.03-15.17-8.84-29.64-5-43.79,2.45-3.67,1.93-8.43,4.94-5.74,9.8,2.73,4.92,7.89,3.04,12.1,1.06,4.27-2.01,7.25-6.39,12.4-6.83.28.21.55.43.8.67-3.56,3.1-7.32,6.01-10.64,9.36-2.81,2.85-4.18,6.8-.85,9.81,3.36,3.03,4.97-1.39,6.81-3.11,4.68-4.38,9.86-7.65,17.15-9.63-1.69,4.64-6.87,4.12-7.84,7.78h-.01c-8.31,3.5-13.17,10.1-12.59,17.26.22,2.7.67,5.91,3.41,6.71,2.6.75,3.55-2.31,5.02-4.14,6.87-8.56,15.29-14.59,26.77-14.93,1.72-.05,3.83-.52,5.25,2.79-7.95-.05-15.03,1.75-21.49,6.11-5.61,3.79-7.48,7.81-5.73,14.67,1.67,6.54,5.13,12.14,7.3,18.35-3.13-1.82-6.27-3.64-9.4-5.46-1.93-2.09-4.15-3.52-7.16-3.17-11.08-8.7-24.23-13.87-36.11-21.22-5-4.89-2.31-10.84-.95-15.68,1.93-6.88.45-11.11-5.48-14.53-13.01-7.5-21.09-19.08-27.36-34.38,8.98,6.97,16.85,12.88,25.87,16.89,7.79,3.46,15.59,6.75,24.32,7.06,14.76.52,26.52-6.47,31.82-20.62,4.08-10.89,7.5-22.14,7.94-33.98,7.05,15.54,8.61,32.43,12.12,48.84.72,3.37-2.11,7.46,2.05,10.13Z"/>
  <path class="cls-4" d="M199.07,6.9c-3.99.04-7.89-.33-11.81-1.35-25.97-6.72-72.49,9.94-84.01,41.04-7.08,19.09-20.86,30.4-38.16,39.46-14.44,7.55-22.37,20.01-21.42,37.07.27,4.78.13,9.58.41,14.35.68,11.39-3.44,20.73-11.56,28.57-8.74,8.42-15.61,17.83-18.22,30.18-1.87,8.83.5,16.8,2.51,25.02-12.27-11.11-11.24-29.48-5.38-40.09,4.46-8.06,10.72-14.65,16.93-21.06,9.32-9.6,11.26-20.3,9.19-32.91-2.92-17.82,2.55-34.04,17.91-42.88,20.52-11.81,35.02-26.78,46.16-48.12C117.47,5.84,156.41-6.77,189.38,3.54c3.26,1.02,6.46,2.23,9.69,3.36Z"/>
  <path class="cls-1" d="M267.27,507.2c3.19-6.41,10.06-3.72,14.9-6.02,1.38,7.28,2.98,14.53,4.1,21.86,3.45,22.52,8.81,44.74,10.42,67.54-1.63,1.1-3.25,2.2-4.88,3.3-.95-.19-1.72-.04-1.97,1.08,0,0-.54-.33-.54-.33-7.16,2.4-14.27,4.96-21.49,7.17-7.58,2.31-13.34.05-16.61-7.48,2.18-.47,3.48.72,4.59,2.36,2.68,3.95,6.68,4.28,10.65,3.12,7.04-2.07,13.95-4.6,20.9-6.98,4.18-1.43,6.01-3.98,6.3-8.81.37-6.15-3.18-11.25-3.3-16.99-.34-16.72-5.23-32.7-7.73-49.06-2.08-13.58-2.74-13.48-15.37-10.75Z"/>
  <path class="cls-1" d="M87.06,529.58c.65,1.57,1.31,3.14,1.96,4.71-1.58.48-2.82,1.23-3.49,2.92-5.12,12.81-10.43,25.55-15.41,38.42-2.15,5.55.4,9.01,5.81,11,2.73,1.01,6.83-.02,7.64,4.41-6.32-.39-12.01-2.61-17.32-5.92-.32-.72-1.1-1.61-.91-2.15,6.61-18.05,12.59-36.37,21.72-53.4Z"/>
  <path class="cls-3" d="M296.7,590.58c-1.61-22.8-6.97-45.02-10.42-67.54-1.12-7.32-2.72-14.57-4.1-21.86.5-1.58-.67-3.76,1.68-4.67,5.74,28.98,10.59,58.1,14.69,87.36.38,2.73,1.51,5.21-1.85,6.71Z"/>
  <path class="cls-3" d="M259.94,130.01c-3.89-4.71-7.81-9.39-11.64-14.15-.82-1.02-1.52-2.24-1.9-3.48-1.24-4.1-.31-7.9,2.2-11.26.88-1.17,2.36-1.14,3.58-.25,3.53,2.61,4.16,6.72,2.95,10.11-2.57,7.21,1.41,10.84,6.32,14.39-.01,1.7.09,3.44-1.5,4.63Z"/>
  <path class="cls-3" d="M261.32,140.86c-4.93,6.13-9.91,4.07-17.19-.2,6.75-.68,12.16,2.25,15.55-2.99.55,1.06,1.09,2.13,1.64,3.2Z"/>
  <path class="cls-3" d="M258.13,95.64c-2.08-2.72-1.56-5.91-1.64-8.99,2.77,2.59,1.48,5.92,1.64,8.99Z"/>
  <path class="cls-3" d="M287,208.51c-.54-1.09-1.07-2.18-1.61-3.27,2.75,0,2.38,1.53,1.61,3.27Z"/>
  <path class="cls-3" d="M285.42,205.27c-1.06-1.08-2.11-2.16-3.17-3.23,2.02.13,3.07,1.22,3.17,3.23Z"/>
  <path class="cls-3" d="M261.57,125.19c-.02-1.04-.04-2.08-.06-3.11,1.46,1.01,1.51,2.05.06,3.11Z"/>
  <path class="cls-3" d="M282.23,202.02c-1.19-.49-2.38-.99-3.58-1.48,1.43-.07,2.73.14,3.58,1.48Z"/>
  <path class="cls-2" d="M135.38,222.39c-.62.13-1.25.27-1.87.4.62-.13,1.25-.27,1.87-.4Z"/>
  <path class="cls-5" d="M83.57,591.05c-.81-4.43-4.91-3.41-7.64-4.41-5.42-1.99-7.97-5.45-5.81-11,4.99-12.86,10.3-25.6,15.41-38.42.68-1.69,1.91-2.45,3.49-2.92,0,0-.18.26-.18.26.54.54,1.09,1.08,1.63,1.62,0,0-.05-.03-.05-.03.69.52,1.37,1.05,2.06,1.57,21.53,15.98,45.88,12.74,69.72,9.1,27.83-4.25,54.88-12.1,81.45-21.52,7.66-2.71,13.79-6.75,17.4-14.11,1.32-2.69,3.19-4.16,6.23-3.97,12.63-2.74,13.28-2.84,15.36,10.74,2.5,16.36,7.39,32.34,7.73,49.06.12,5.74,3.67,10.85,3.3,16.99-.29,4.82-2.13,7.38-6.3,8.81-6.95,2.38-13.86,4.91-20.9,6.98-3.97,1.17-7.97.83-10.65-3.12-1.11-1.64-2.41-2.83-4.59-2.36,0,0,.03-.16.03-.16.13-.51.48-1.09.34-1.52-4.71-15.21-9.2-30.46-9.69-46.56-.05-1.66-1.49-2.69-3.15-3.13-.76,0-1.52,0-2.28.01-3.33.71-3.99,3.26-3.73,6.02.72,7.81-1.91,15.06-3.61,22.45-1.05,4.57-3.5,8.85-2.64,13.79l.16.37-.32.25c-4.11.74-3.06,3.9-3.08,6.56,0,0,.05-.08.05-.08-1.35.65-1.72,1.82-1.68,3.2,0,0,0,0,0,0-1.25.62-1.64,1.71-1.64,3.02l-.15.23c-.48.52-.97,1.04-1.45,1.55h0c-1.23.65-1.62,1.76-1.65,3.06,0,0-.08.12-.08.12-.49.53-.98,1.06-1.47,1.59l-.04.05c-.52.49-1.05.99-1.57,1.48,0,0-.13.08-.12.08-1.3.03-2.42.41-3.08,1.65v-.06c-2.72-.08-5.44-.15-8.17-.23-.49-.67-.96-.65-1.42.03-11.83,1.11-23.54-1.01-35.32-1.37-2.63.07-5.38-.72-7.8,1-1.25.29-2.45.36-3.43-.7-11.33-4.5-23.12-6.48-35.28-6.43,0,0-.22.34-.22.34-3.03-5.5-8.09-3.66-12.68-3.49,0,0,.04.26.04.25-3.42-4.12-8.05-4.01-12.75-3.62,0,0,.09.12.09.12-2.41-3.66-5.99-3.76-9.78-3.23l-.08.11Z"/>
  <path class="cls-1" d="M238.75,542.93c1.66.44,3.1,1.47,3.15,3.13.49,16.1,4.98,31.35,9.69,46.56.13.43-.22,1.01-.34,1.52-6.72-9.69-8.05-21.13-10.22-32.23-1.22-6.24-1.55-12.65-2.28-18.98Z"/>
  <path class="cls-1" d="M226.49,585.21c-.86-4.94,1.59-9.22,2.64-13.79,1.7-7.39,4.33-14.64,3.61-22.45-.26-2.76.4-5.32,3.73-6.02-1.63,14.49-3.47,28.93-9.99,42.26Z"/>
  <path class="cls-6" d="M165.46,606.7c11.78.36,23.48,2.49,35.32,1.38,0,0,.71.05.71.05l.71-.08c2.72.08,5.45.15,8.17.23-11.74,3.39-23.65,1.03-35.48.97-3.16-.02-6.32-.81-9.47-1.25.02-.43.04-.87.04-1.3Z"/>
  <path class="cls-1" d="M118.95,600.57c12.16-.05,23.95,1.93,35.28,6.43-11.95-1.09-23.89-2.22-35.28-6.43Z"/>
  <path class="cls-1" d="M106.05,597.42c4.59-.16,9.65-2.01,12.68,3.49-4.36-.68-8.79-1.11-12.68-3.49Z"/>
  <path class="cls-1" d="M93.34,594.05c4.7-.39,9.33-.5,12.75,3.62-4.48-.39-8.83-1.24-12.75-3.62Z"/>
  <path class="cls-1" d="M83.65,590.94c3.79-.52,7.37-.43,9.78,3.23-3.53-.26-6.95-.84-9.78-3.23Z"/>
  <path class="cls-1" d="M223.25,592.4c.01-2.66-1.04-5.82,3.08-6.56-.41,2.48-1.22,4.76-3.08,6.56Z"/>
  <path class="cls-1" d="M165.46,606.7c0,.43-.02.87-.04,1.3-2.59-.1-5.17-.2-7.76-.3,2.42-1.72,5.17-.92,7.8-1Z"/>
  <path class="cls-1" d="M221.62,595.52c-.03-1.38.33-2.55,1.68-3.2-.16,1.28-.31,2.56-1.68,3.2Z"/>
  <path class="cls-1" d="M219.99,598.54c0-1.3.38-2.39,1.64-3.02-.05,1.27-.31,2.44-1.64,3.02Z"/>
  <path class="cls-1" d="M216.74,603.37c.04-1.3.43-2.4,1.65-3.06.04,1.34-.41,2.41-1.65,3.06Z"/>
  <path class="cls-1" d="M210.37,608.34c.65-1.24,1.77-1.62,3.08-1.65-.67,1.21-1.76,1.65-3.08,1.65Z"/>
  <path class="cls-1" d="M213.57,606.61c.52-.49,1.05-.99,1.57-1.48-.52.49-1.05.99-1.57,1.48Z"/>
  <path class="cls-1" d="M215.19,605.08c.49-.53.98-1.06,1.47-1.59-.49.53-.98,1.06-1.47,1.59Z"/>
  <path class="cls-1" d="M218.39,600.32c.48-.52.97-1.04,1.45-1.55-.48.52-.97,1.04-1.45,1.55Z"/>
  <g>
    <path class="cls-5" d="M226.26,259.57s0,.02,0,.03c.01,0,.02,0,.03,0l-.04-.03Z"/>
    <path class="cls-5" d="M340.97,345.01c-1.13-2.67-2.27-5.35-3.41-8.02-3.41-8.02-6.85-16.03-10.31-24.02-2.29-5.28-4.82-10.5-10.04-13.68,0,0,.15.14.15.14-1.09,1.8-2.9,1.7-4.65,1.75,0,0-.09.05-.09.05-.85,1.17-2.07,1.47-3.43,1.45-4.11.99-8.24,1.91-12.33,2.97-6.21,1.61-10.16.1-11.21-6.96-1.13-7.6-4.6-13.5-11.63-17.87-5.66-3.51-10.26-8.86-14.23-14.44-3.13-1.82-6.27-3.64-9.4-5.46-2.33-.07-3.84.78-4.84,3.12-3.07,7.19-6.09,8.19-12.62,3.91-3.02-1.98-5.96-4.39-6.68-8.37-5.63-.67-5.35,2.55-4.19,6.38,3.8,12.54,4.86,25.49,5.59,38.47.11,1.95,1.12,4.72-1.32,5.71-2.17.88-3.88-1.32-5.41-2.63-9.28-7.93-18.58-15.84-27.62-24.04-10.27-9.31-10.15-9.43-20.98-.22-1.21,1.03-2.56,1.89-3.8,2.89-17.91,14.46-21.85,13.64-32.98-7.08-7.79-14.49-15.51-29.02-23.26-43.54.12-1.06.25-2.12.37-3.18,1.46.09,2.92.18,4.38.27,1.89-1.01,4-1.7,5.57-3.16-1.57,1.46-3.69,2.15-5.57,3.16,8.34,18.38,18.53,35.75,28.86,53.05,3.29,5.5,7.31,7.01,12.78,2.24,4.98-4.35,10.36-8.26,15.68-12.2,4.67-3.46,5.57-6.77,1.11-11.33-12.44-12.69-24.63-25.62-36.92-38.46-.14-1.23-.28-2.45-.42-3.68-.93.05-1.85.1-2.78.15-.62.13-1.25.27-1.87.4-1.74.89-3.49,1.78-5.23,2.66l.22.28c-.11-.14-.22-.28-.22-.28-1.67.26-3.29.63-4.4,2.07-4.05.85-7.74,2.54-11.19,4.79v-.05c-2.69,0-4.53,1.65-6.37,3.29-9.05,3.28-17.74,7.32-25.94,12.38l.09.11-.09-.11c-4.57,1.51-8.88,3.5-12.52,6.73-3.04.96-5.69,2.59-8,4.77l.18.24c.56-.05,1.13-.11,1.68-.18-15.23,9.33-28.08,21.19-33.03,38.81-1.1,3.5-1.95,7-2.59,10.5-5.68,31.49,6.46,62.77,14.55,92.14.9,3.3,1.77,6.61,2.62,9.91,4.27,16.49,8.23,32.98,14.63,48.85,1.04,2.91,2.1,5.82,3.18,8.71,7.59,20.23,16.53,39.82,30.65,56.91,0,0,.09-.19.09-.19.55.54,1.09,1.08,1.64,1.63,0,0-.03-.03-.03-.03.54.54,1.09,1.09,1.63,1.63,0,0-.02-.04-.02-.04.52.67,1.03,1.34,1.54,2.02,12.92,10.51,28.32,10.22,43.37,8.65,35.86-3.74,70.2-14.62,104.78-24.12,12.95-3.56,17.96-10.98,18.3-23.83.23-8.59-1-16.97-2.7-25.33-2.12-10.43-2.87-11.12-13.24-8.85-28.89,6.3-57.92,11.43-87.65,10.54-12.85-.38-25.54.18-37.72,4.84-1.43.54-3.15,1.56-3.96-.71-.62-1.72.28-3.27,1.82-3.98,4.33-2.02,8.6-4.63,13.18-5.55,6.05-1.22,6.38-3.75,4.51-8.86-8.73-23.75-14.17-48.48-21.36-72.7-6.94-23.4-11.45-47.73-25.49-68.52-1.46-2.17-2.5-4.58-.25-7.13,3.68,1.7,5.31,4.74,7.14,7.64,8.19,12.98,12.76,27.4,17.01,42,9.51,32.7,17.98,65.7,28.63,98.06,2,6.08,4.88,8.65,11.83,8.97,39.05,1.8,76.52-7.92,114.4-14.68,2.74-.49,5.13-1.38,6.21-4.3,7.99-21.72,15.93-43.32,16.85-66.97.9-22.91-5.95-43.52-15.62-63.64-.93-1.94-3.37-4.69-.22-6.17,2.35-1.1,3.28,2.11,4.19,3.84,10.79,20.23,17.79,41.46,17.59,64.75-.15,17.48-7.28,34.45-3.64,52.17,1.48,6.03,2.96,12.07,4.44,18.1,3.69,6.99,5.08,15.09,10.27,21.36.57.63,1.13,1.25,1.7,1.88.67.96,1.34,1.91,2.01,2.87.4.42.8.85,1.2,1.27.69.68,1.39,1.36,2.08,2.04.42.45.85.9,1.27,1.36,1.51.35,3.37.25,4.49,1.11,10.8,8.36,22.62,9.62,35.31,5.42,0,0,.17-.1.17-.1.54-.47,1.09-.94,1.63-1.41,0,0,0,0,0,0,.59-.52,1.18-1.04,1.77-1.56,0,0,.01.06.01.06.42-.62.84-1.24,1.27-1.86.58-.48,1.17-.96,1.76-1.44,0,0,0,0,0,0-.14-2.38,0-4.59,3.14-4.85h0c1.57-5.5,2.34-11.05,2.75-16.65.21-2.8.32-5.6.41-8.42,3.44-36.33-13.56-69.33-29.25-100.66ZM128.77,226.08s-.07-.09-.16-.21l.16.21c1.63-.18,3.27-.44,4.9-.54-1.63.1-3.27.36-4.9.54-.62.79-1.38,1.17-2.2,1.37.82-.19,1.58-.57,2.2-1.37ZM106.4,235.71s-.02.01-.03.02c0,0,.02-.01.03-.02h0ZM80.81,248.49h0c1.21-.26,2.4-.56,3.58-.89-1.63.77-3.26,1.55-4.88,2.34.45-.45.89-.92,1.31-1.44ZM68.08,254.94h0c.81-.11,1.61-.25,2.39-.42-.94.5-1.88,1.01-2.81,1.53.16-.34.31-.7.42-1.11ZM100.56,240.04c.31-.2.61-.42.91-.62-.27.19-.54.39-.81.58-.03.02-.07.03-.1.05ZM103.9,237.67c-.27.21-.54.41-.82.61.27-.2.55-.4.82-.61ZM235.79,426.25c-.51,2.18-.67,5.64-3.67,5.22-2.87-.4-2.75-3.64-2.18-5.97,6.16-24.9,5.21-50.05,2.9-75.27-.19-2.11-.17-4.25-.11-6.38.03-1.25-.28-2.93,1.38-3.33,2.02-.48,2.95,1.16,3.17,2.7,1.12,7.87,2.28,15.74,3,23.65.43,4.75.08,9.57.08,14.35.84,15.24-1.1,30.21-4.56,45.02Z"/>
  </g>
  <path class="cls-5" d="M207.14,236.55c11.87,7.35,25.03,12.51,36.11,21.22q-5.28,8.66-15.47,2.2c-.42-.27-1-.27-1.51-.4l.04.03c-4.98-5.26-10-10.49-14.92-15.81-1.93-2.08-4.19-4.03-4.24-7.24Z"/>
  <path class="cls-3" d="M222.01,155.44c7.8,1.04,15.45-.16,23.03.45,2.48.2,6.09.04,5.96,3.63-.14,3.62-3.35,4.29-6.53,4.09-8.2-.53-15.61-3.31-22.45-8.16Z"/>
  <path class="cls-3" d="M226.29,83.11c-7.07-2.21-13.29.05-19.46,2.69-1.2.52-2.51,1.33-3.68.17-1.25-1.24-.32-2.39.52-3.44,4.27-5.36,17.57-8.13,23.63-4.98,1.7.88,3.69,1.79,3.33,3.93-.45,2.67-2.81,1.65-4.33,1.63Z"/>
  <path class="cls-3" d="M221.61,109.44c-.19,3.33.33,7.5-3.91,7.7-4.52.22-5.1-4.12-5.2-7.51-.1-3.4.36-7.98,4.59-7.97,4.3,0,4.13,4.61,4.52,7.78Z"/>
  <path class="cls-3" d="M157.57,136c-8-6.54-10.33-15.54-19.29-18.36,8.32-2.94,12.86,1.28,19.29,18.36Z"/>
  <path class="cls-1" d="M91.82,525.15c.55.54,1.09,1.08,1.64,1.63-.55-.54-1.09-1.08-1.64-1.63Z"/>
  <path class="cls-1" d="M93.43,526.74c.54.54,1.09,1.09,1.63,1.63-.54-.54-1.09-1.09-1.63-1.63Z"/>
  <path class="cls-1" d="M95.04,528.34c.51.67,1.03,1.34,1.54,2.02-.52-.67-1.03-1.34-1.54-2.02Z"/>
  <path class="cls-1" d="M92.47,537.71c-.69-.52-1.37-1.05-2.06-1.57.68.52,1.37,1.05,2.06,1.57Z"/>
  <path class="cls-1" d="M90.47,536.17c-.54-.54-1.09-1.08-1.63-1.62.54.54,1.09,1.08,1.63,1.62Z"/>
  <path class="cls-3" d="M251.87,219.6c3.6,1.32,5.82-1.68,8.61-2.83,5.54-2.29,11.03-4.53,17.35-1.71-8.25,1.3-15.47,4.64-22.55,8.77-3.78,2.2-2.18-2.79-3.41-4.22h.01Z"/>
  <path class="cls-3" d="M267.9,241.95c1.1-1.31,2.21-2.63,3.31-3.94,0,7.07-.41,13.51-.15,19.98h0c-6.05-4.25-2.1-10.6-3.32-15.86l.15-.18Z"/>
  <path class="cls-3" d="M267.74,242.13c-.26.02-.57.15-.76.05-2.16-1.16-5.13,1.86-6.75-1.23-.27-.51.58-2.21,1.29-2.54,3.57-1.66,4.96,1.06,6.38,3.54l-.15.18Z"/>
  <path class="cls-3" d="M246.44,204.72c.58-1.93,1.88-3,3.9-3.05.31,0,.93.62.89.89-.3,2.33-2.36,2.29-3.99,2.83-.25-.24-.52-.46-.8-.67Z"/>
  <path class="cls-3" d="M271.06,257.99c.21.07.42.15.64.22-.21-.08-.42-.15-.63-.23h0Z"/>
  <path class="cls-2" d="M226.26,259.57c.51.13,1.09.14,1.51.4q10.19,6.45,15.47-2.2c3.01-.35,5.23,1.08,7.16,3.17-2.33-.07-3.84.78-4.84,3.12-3.07,7.19-6.09,8.19-12.62,3.91-3.03-1.98-5.97-4.4-6.68-8.4Z"/>
  <path class="cls-1" d="M202.2,608.05l-.71.08s-.71-.05-.71-.05c.46-.68.94-.7,1.42-.03Z"/>
  <path class="cls-2" d="M240.35,381.24c.84,15.24-1.1,30.21-4.56,45.02-.51,2.18-.67,5.64-3.67,5.22-2.87-.4-2.75-3.64-2.18-5.97,6.16-24.9,5.21-50.05,2.9-75.27-.19-2.11-.17-4.25-.11-6.38.03-1.25-.28-2.93,1.38-3.33,2.02-.48,2.95,1.16,3.17,2.7,1.12,7.87,2.28,15.74,3,23.65.43,4.75.08,9.57.08,14.35Z"/>
</svg>